<svg height="31" width="32" xmlns="http://www.w3.org/2000/svg" viewBox="0 0 32 31"><path fill="#757575" fill-rule="evenodd" d="M31.99 16.15v3.08c0 1.54-1.27 2.8-2.84 2.8H27.1C25.05 27.62 19.84 31 16 31c-3.85 0-9.06-3.38-11.1-8.97H2.84c-1.57 0-2.84-1.26-2.84-2.8v-3.08c0-1.07.6-1.99 1.49-2.47.03-4.37 1.32-7.79 3.84-10.15C7.84 1.19 11.42 0 16 0c4.57 0 8.16 1.19 10.66 3.53 2.52 2.36 3.81 5.78 3.84 10.15a2.8 2.8 0 0 1 1.49 2.47zm-6 .91c0-.72-.04-1.4-.1-2.05-1.26-1.14-3.54-2-6.43-2.32.38.42.71.97.91 1.7-1.77-1.38-5.24-1.05-7.87-4.13-.15-.17-.28-.33-.39-.48v-.01c-.47-.62-.63-.99-.64-.58-.07 3.54-2.61 6.29-5.43 6.68-.02.39-.03.78-.03 1.19 0 1.49.24 2.86.66 4.08 1.59 1.89 4.2 2.42 6.52 2.56.43-.67 1.39-1.14 2.51-1.14 1.52 0 2.76.86 2.76 1.93 0 1.06-1.24 1.93-2.76 1.93-1.17 0-2.17-.51-2.57-1.24-1.61-.09-3.39-.36-4.98-1.1 2.23 3.24 5.69 4.96 7.85 4.96 3.39 0 9.99-4.23 9.99-11.98zm2.81-3.71C28.62 5.71 24.2 1.68 16 1.68c-8.21 0-12.62 4.03-12.8 11.67h1.09c.4-2.58 1.24-4.69 2.52-6.32C8.85 4.44 11.94 3.12 16 3.12c4.05 0 7.14 1.32 9.18 3.91 1.28 1.63 2.12 3.74 2.52 6.32h1.1zm0 0"/></svg>