<svg height="29" width="169" xmlns="http://www.w3.org/2000/svg" viewBox="0 0 169 29"><path fill="#444" fill-rule="evenodd" d="M168.34 23.46c-.43-.54-1.2-1.09-2.34-1.63-.85-.41-1.4-.69-1.63-.85-.23-.16-.39-.32-.5-.49-.11-.17-.16-.37-.16-.59 0-.37.13-.67.39-.89.26-.23.64-.34 1.12-.34.41 0 .83.05 1.25.16.43.1.96.29 1.61.55l.83-2c-.63-.27-1.23-.48-1.8-.63-.57-.15-1.17-.22-1.8-.22-1.29 0-2.29.3-3.02.92-.73.61-1.09 1.46-1.09 2.53 0 .57.11 1.07.33 1.49.22.43.52.8.89 1.12.37.32.92.66 1.67 1.01.79.37 1.31.65 1.57.82.26.17.45.35.58.53.14.19.2.4.2.64 0 .43-.15.75-.45.96-.3.22-.73.33-1.3.33-.47 0-.99-.08-1.55-.23-.57-.15-1.26-.4-2.08-.77v2.39c.99.49 2.14.73 3.43.73 1.41 0 2.51-.31 3.29-.95.79-.63 1.19-1.49 1.19-2.59 0-.79-.21-1.45-.63-2zm-16.06 5.37h6.99v-2.12h-4.41v-3.13h4.11v-2.11h-4.11v-2.66h4.41V16.7h-6.99v12.13zm-11.03-9.99h3.3v9.99h2.57v-9.99h3.3V16.7h-9.17v2.14zm-4.35 5.27c0 .94-.18 1.63-.56 2.07-.38.44-.99.66-1.83.66-.87 0-1.5-.22-1.87-.65-.38-.44-.57-1.13-.57-2.06V16.7h-2.56v7.82c0 1.39.43 2.48 1.29 3.28.87.8 2.08 1.2 3.64 1.2 1.03 0 1.93-.18 2.69-.54.76-.36 1.34-.88 1.74-1.55.4-.68.6-1.46.6-2.36V16.7h-2.57v7.41zm-12.68-1.67c0 .66.04 1.77.13 3.35h-.06l-5.27-9.09h-3.25v12.13h2.3v-5.71c0-.69-.05-1.84-.16-3.46h.08l5.28 9.17h3.27V16.7h-2.32v5.74zm-14.07 6.39h2.57V16.7h-2.57v12.13zm-9.61-2.85h-.05l-2.87-9.28h-3.5v12.13h2.3v-5.64c0-.65-.05-1.94-.16-3.88h.08l2.92 9.52h2.35l3.13-9.5h.08c-.07 1.53-.11 2.47-.11 2.82-.01.36-.02.67-.02.94v5.74h2.4V16.7h-3.5l-3.05 9.28zm-15.92-.03c-.27.66-.7.98-1.3.98-.61 0-1.04-.32-1.3-.96-.26-.65-.38-1.72-.38-3.2 0-1.49.13-2.56.39-3.21.26-.65.69-.98 1.29-.98.59 0 1.02.33 1.29.98.27.65.4 1.72.4 3.21 0 1.47-.13 2.53-.39 3.18zm-1.3-9.44c-1.44 0-2.5.51-3.19 1.52-.7 1.02-1.04 2.6-1.04 4.74 0 2.05.35 3.6 1.06 4.65.72 1.05 1.77 1.58 3.17 1.58 1.44 0 2.52-.51 3.21-1.53.69-1.01 1.04-2.58 1.04-4.7 0-2.05-.36-3.6-1.07-4.67-.72-1.06-1.78-1.59-3.18-1.59zm-8.48 5.98v-.05c.83-.2 1.47-.56 1.93-1.09.46-.53.69-1.18.69-1.94 0-.9-.36-1.61-1.09-2.12-.73-.51-1.72-.76-2.98-.76-1.53 0-2.85.39-3.95 1.19l1.18 1.77c.51-.33.96-.56 1.38-.69.41-.13.81-.2 1.21-.2 1.15 0 1.73.46 1.73 1.38 0 .6-.22 1.02-.65 1.26-.44.25-1.13.37-2.07.37h-.93v1.97h.92c1.02 0 1.76.12 2.22.36.47.24.7.64.7 1.21 0 .64-.2 1.1-.61 1.39-.4.28-1.03.43-1.87.43-.56 0-1.12-.08-1.68-.23-.56-.15-1.08-.34-1.55-.58v2.18c1.02.44 2.19.66 3.5.66 1.57 0 2.78-.32 3.63-.97.84-.65 1.27-1.56 1.27-2.73 0-.8-.25-1.44-.76-1.91-.5-.48-1.24-.77-2.22-.9zm-14.33-.05c0 .66.05 1.77.13 3.35h-.06l-5.27-9.09h-3.25v12.13h2.3v-5.71c0-.69-.05-1.84-.15-3.46h.07l5.28 9.17h3.27V16.7h-2.32v5.74zm-14.07 6.39h2.57V16.7h-2.57v12.13zm-5.63-7.37H36V16.7h-2.57v12.13H36V23.6h4.81v5.23h2.56V16.7h-2.56v4.76zM22.4 18.84h3.3v9.99h2.57v-9.99h3.29V16.7H22.4v2.14zm-4.44 9.99h2.57V16.7h-2.57v12.13zm-5.6-5.51c-.1.4-.21.92-.33 1.57-.13.64-.21 1.18-.27 1.61-.06-.45-.15-.98-.26-1.61-.12-.62-.22-1.09-.29-1.39l-1.77-6.8H7l-1.76 6.8c-.11.36-.22.88-.34 1.54-.12.66-.19 1.15-.23 1.46-.12-.89-.32-1.95-.59-3.18L2.53 16.7H0l3.1 12.13h2.92l1.63-6.35c.07-.29.18-.76.31-1.42.13-.66.21-1.14.25-1.44.02.25.11.72.25 1.43.15.71.25 1.18.31 1.41l1.65 6.37h2.93l3.08-12.13H13.9l-1.54 6.62zM116.61 8.67c0 1.53.72 2.29 2.17 2.29.19 0 .41-.02.65-.05.23-.04.42-.09.54-.15v-.87c-.11.03-.26.06-.45.09-.18.03-.38.05-.58.05-.37 0-.66-.12-.88-.37-.21-.24-.32-.58-.32-1.03V4.22h2.17v-.88h-2.17V1.6h-.65l-.48 1.6-1.08.47v.55h1.08v4.45zm-3.67-5.07c-.4.26-.73.64-1.01 1.12h-.05l-.13-1.38h-.94v7.49h1.13V6.81c0-.74.22-1.35.65-1.84.43-.49.95-.74 1.56-.74.23 0 .51.04.82.1l.15-1.05c-.26-.05-.56-.08-.89-.08-.47 0-.9.13-1.29.4zm-5.87 5.67c-.39.49-.95.74-1.69.74-.75 0-1.31-.25-1.69-.75-.38-.5-.58-1.23-.58-2.19s.19-1.69.57-2.18c.38-.48.94-.73 1.68-.73.76 0 1.32.25 1.71.74.38.5.58 1.22.58 2.17 0 .97-.2 1.7-.58 2.2zM105.4 3.2c-1.09 0-1.93.34-2.55 1.02-.61.68-.91 1.63-.91 2.85 0 .79.14 1.48.42 2.07.28.59.69 1.04 1.21 1.35.52.32 1.11.47 1.78.47 1.08 0 1.93-.34 2.55-1.03.61-.68.92-1.63.92-2.86 0-1.19-.31-2.13-.93-2.83-.61-.69-1.45-1.04-2.49-1.04zM94.91 6.82c.01-.92.19-1.6.53-2.02.34-.43.89-.64 1.66-.64.66 0 1.18.25 1.55.75.36.5.55 1.22.55 2.15 0 .92-.19 1.64-.55 2.17-.37.52-.88.78-1.52.78-.78 0-1.34-.22-1.69-.68-.35-.45-.53-1.2-.53-2.26v-.25zm0 4.29c0-.39-.02-.81-.08-1.25h.08c.27.38.61.65 1.02.83.4.18.84.27 1.33.27.98 0 1.74-.34 2.29-1.02.55-.68.82-1.64.82-2.87 0-1.22-.27-2.17-.81-2.85-.54-.68-1.3-1.02-2.3-1.02-.5 0-.94.09-1.33.27-.39.18-.73.48-1.02.89h-.05l-.16-1.02h-.92v10.85h1.13v-3.08zm-4.84-1.88c-.37.52-.88.78-1.52.78-.78 0-1.34-.22-1.69-.68-.35-.45-.53-1.2-.53-2.26v-.25c.01-.92.19-1.6.53-2.02.34-.43.9-.64 1.66-.64.67 0 1.18.25 1.55.75.37.5.55 1.22.55 2.15 0 .92-.18 1.64-.55 2.17zM88.68 3.2c-.5 0-.94.09-1.33.27-.38.18-.72.48-1.02.89h-.05l-.16-1.02h-.92v10.85h1.13v-3.08c0-.39-.02-.81-.08-1.25h.08c.28.38.62.65 1.02.83.4.18.85.27 1.33.27.98 0 1.74-.34 2.29-1.02.55-.68.82-1.64.82-2.87 0-1.22-.27-2.17-.8-2.85-.55-.68-1.31-1.02-2.31-1.02zm-9.43 7.76c.53 0 1-.09 1.41-.29.42-.2.74-.48.97-.85h.06l.17 1.01h.93V3.34h-1.13v3.93c0 .97-.18 1.67-.54 2.1-.37.43-.94.64-1.72.64-.6 0-1.03-.15-1.31-.45-.28-.3-.42-.75-.42-1.36V3.34h-1.15v4.9c0 .95.23 1.64.69 2.07.45.44 1.13.65 2.04.65zm-5.47-.73c.64-.5.96-1.18.96-2.06 0-.69-.2-1.24-.6-1.67-.39-.43-1.11-.83-2.16-1.2-.62-.23-1.09-.43-1.39-.61-.3-.19-.52-.39-.65-.61-.12-.22-.19-.51-.19-.85 0-.47.17-.84.52-1.1.35-.27.83-.4 1.44-.4.78 0 1.58.17 2.41.52l.36-1.01c-.83-.37-1.75-.55-2.74-.55-.95 0-1.72.23-2.3.68-.57.46-.86 1.07-.86 1.84 0 .74.2 1.33.59 1.79.4.45 1.07.85 2 1.18.66.24 1.16.45 1.48.63.33.19.56.4.7.62.14.22.21.5.21.85 0 .52-.2.93-.59 1.22-.39.3-.97.44-1.75.44-.47 0-.95-.04-1.43-.15-.49-.1-.93-.23-1.34-.41v1.13c.63.3 1.55.45 2.73.45 1.09 0 1.96-.24 2.6-.73zM61.7 3.6c-.39.26-.73.64-1.01 1.12h-.05l-.13-1.38h-.93v7.49h1.13V6.81c0-.74.21-1.35.65-1.84.43-.49.94-.74 1.55-.74.24 0 .51.04.82.1l.16-1.05c-.27-.05-.56-.08-.9-.08-.47 0-.9.13-1.29.4zm-8.56 1.14c.36-.4.84-.59 1.44-.59.59 0 1.05.19 1.36.57.32.38.48.93.48 1.64h-3.91c.06-.69.27-1.23.63-1.62zm1.75 6.22c.5 0 .93-.03 1.29-.11.36-.07.74-.2 1.14-.37V9.47c-.79.33-1.59.5-2.39.5-.77 0-1.36-.23-1.78-.68-.42-.46-.65-1.12-.67-2h5.16v-.72c0-1.01-.27-1.83-.82-2.45-.55-.61-1.29-.92-2.23-.92-1 0-1.8.35-2.39 1.07-.6.71-.9 1.67-.9 2.87 0 1.2.32 2.14.96 2.81.64.68 1.52 1.01 2.63 1.01zM46.85 3.2c-.54 0-1.03.11-1.45.34-.42.23-.75.54-.97.93h-.06c-.36-.85-1.12-1.27-2.29-1.27-.49 0-.92.1-1.31.31-.39.2-.69.49-.91.85h-.05l-.19-1.02h-.92v7.49h1.14V6.9c0-.97.16-1.67.49-2.1.33-.42.85-.64 1.56-.64.54 0 .94.15 1.2.45.25.3.38.75.38 1.34v4.88h1.14V6.64c0-.84.16-1.46.5-1.87.34-.4.86-.61 1.57-.61.53 0 .93.15 1.19.45.25.3.38.75.38 1.34v4.88h1.13V5.94c0-.96-.21-1.65-.63-2.09-.42-.43-1.06-.65-1.9-.65zM34.96 9.27c-.39.49-.95.74-1.69.74-.75 0-1.31-.25-1.69-.75-.39-.5-.58-1.23-.58-2.19s.19-1.69.57-2.18c.38-.48.94-.73 1.68-.73.75 0 1.32.25 1.71.74.38.5.57 1.22.57 2.17 0 .97-.19 1.7-.57 2.2zm1.75-2.2c0-1.19-.31-2.13-.93-2.83-.61-.69-1.44-1.04-2.49-1.04-1.09 0-1.93.34-2.55 1.02-.61.68-.91 1.63-.91 2.85 0 .79.14 1.48.42 2.07.28.59.68 1.04 1.21 1.35.52.32 1.11.47 1.78.47 1.08 0 1.93-.34 2.55-1.03.61-.68.92-1.63.92-2.86zm-11.33 1.6c0 1.53.73 2.29 2.18 2.29.19 0 .41-.02.65-.05.23-.04.42-.09.54-.15v-.87c-.11.03-.26.06-.45.09-.18.03-.38.05-.58.05-.37 0-.66-.12-.88-.37-.21-.24-.32-.58-.32-1.03V4.22h2.17v-.88h-2.17V1.6h-.66l-.48 1.6-1.07.47v.55h1.07v4.45zm-6.36-1.95c.29.19.79.42 1.48.68.74.28 1.23.52 1.49.73.25.21.37.46.37.75 0 .39-.15.67-.47.86-.32.19-.78.29-1.37.29-.38 0-.78-.06-1.19-.16-.42-.1-.8-.25-1.16-.43v1.05c.55.32 1.33.47 2.32.47.94 0 1.67-.19 2.19-.56.52-.38.78-.92.78-1.62 0-.49-.16-.91-.47-1.23-.31-.33-.91-.66-1.8-.98-.65-.24-1.09-.43-1.31-.56-.23-.12-.4-.26-.5-.4a.854.854 0 0 1-.15-.51c0-.3.13-.53.41-.7.27-.17.68-.25 1.21-.25.61 0 1.3.15 2.05.46l.4-.92c-.77-.33-1.56-.49-2.36-.49-.87 0-1.55.18-2.05.53-.5.35-.74.83-.74 1.44 0 .35.07.64.21.89.15.24.37.46.66.66zm-6.34 4.24c.53 0 1-.09 1.41-.29.41-.2.74-.48.97-.85h.06l.16 1.01h.94V3.34h-1.13v3.93c0 .97-.19 1.67-.55 2.1-.36.43-.93.64-1.72.64-.59 0-1.03-.15-1.3-.45-.28-.3-.42-.75-.42-1.36V3.34H9.95v4.9c0 .95.23 1.64.68 2.07.46.44 1.14.65 2.05.65zm-7.22 0c1.02 0 1.87-.13 2.56-.39V9.56c-.89.25-1.68.37-2.38.37-1.14 0-2.01-.36-2.62-1.07-.62-.71-.92-1.72-.92-3.03 0-1.27.32-2.27.95-3 .64-.74 1.5-1.1 2.6-1.1.76 0 1.51.18 2.27.53l.49-1C7.63.88 6.71.69 5.67.69c-.99 0-1.84.21-2.57.63-.73.42-1.28 1.02-1.67 1.79-.38.77-.58 1.68-.58 2.71 0 1.64.4 2.91 1.2 3.8.8.9 1.94 1.34 3.41 1.34zm0 0"/></svg>