<svg height="29" width="123" xmlns="http://www.w3.org/2000/svg" viewBox="0 0 123 29"><path fill="#444" fill-rule="evenodd" d="M113.51 16.7v2.14h3.29v9.99h2.58v-9.99h3.29V16.7h-9.16zm-7.77 7.09c.86-2.8 1.39-4.55 1.57-5.26.04.2.11.47.22.82.1.34.56 1.82 1.37 4.44h-3.16zm-.02-7.14l-4.28 12.18h2.77l.88-2.88h4.43l.87 2.88h2.78l-4.3-12.18h-3.15zm-8.38 4.81h-4.81V16.7h-2.57v12.13h2.57V23.6h4.81v5.23h2.56V16.7h-2.56v4.76zm-13.06-2.79c.45 0 .9.08 1.36.24.46.16.91.35 1.37.56l.83-2.09c-1.19-.57-2.38-.85-3.56-.85-1.15 0-2.16.25-3.02.76-.86.5-1.52 1.23-1.98 2.18-.46.95-.69 2.05-.69 3.31 0 2.01.47 3.54 1.4 4.61.94 1.08 2.29 1.61 4.05 1.61 1.23 0 2.34-.21 3.34-.62v-2.16c-1.21.43-2.24.64-3.1.64-2.03 0-3.04-1.35-3.04-4.06 0-1.3.26-2.31.79-3.04.54-.73 1.29-1.09 2.25-1.09zm-20.6.17h3.3v9.99h2.57v-9.99h3.3V16.7h-9.17v2.14zm-4.18 3.6c0 .66.04 1.77.13 3.35h-.06L54.3 16.7h-3.25v12.13h2.3v-5.71c0-.69-.05-1.84-.16-3.47h.08l5.28 9.18h3.27V16.7H59.5v5.74zm-17.4 1.35c.86-2.8 1.38-4.55 1.57-5.26.04.2.11.47.21.82.11.34.57 1.82 1.38 4.44H42.1zm-.02-7.14L37.8 28.83h2.77l.88-2.88h4.42l.88 2.88h2.77l-4.29-12.18h-3.15zm-13.79 2.19h3.3v9.99h2.57v-9.99h3.3V16.7h-9.17v2.14zm-3.97 2.99c-.86-.41-1.4-.69-1.63-.85-.23-.16-.4-.32-.5-.49-.11-.17-.16-.37-.16-.59 0-.37.13-.67.39-.89.26-.23.63-.34 1.12-.34.41 0 .82.05 1.25.16.42.1.96.29 1.6.55l.83-2c-.62-.27-1.22-.48-1.79-.63a7.18 7.18 0 0 0-1.81-.22c-1.28 0-2.29.3-3.01.92-.73.61-1.1 1.46-1.1 2.53 0 .57.11 1.07.34 1.49.22.43.51.8.88 1.12.37.32.93.66 1.67 1.01.79.37 1.32.65 1.57.82.26.17.46.35.59.53.13.19.2.4.2.64 0 .43-.15.75-.45.96-.31.22-.74.33-1.3.33-.47 0-.99-.08-1.56-.23-.57-.15-1.26-.41-2.08-.77v2.39c1 .49 2.14.73 3.44.73 1.4 0 2.5-.31 3.29-.95.79-.63 1.18-1.49 1.18-2.59 0-.79-.21-1.45-.63-2-.42-.54-1.2-1.09-2.33-1.63zm-9.57.61c0 .66.04 1.77.12 3.35h-.05L9.54 16.7H6.3v12.13h2.3v-5.71c0-.69-.05-1.84-.16-3.47h.08l5.27 9.18h3.28V16.7h-2.32v5.74zM.67 28.83h2.58V16.7H.67v12.13zM115.75 8.67c0 1.53.73 2.29 2.18 2.29.19 0 .4-.02.64-.05.24-.04.42-.09.55-.15v-.87c-.11.03-.26.06-.45.09s-.38.05-.58.05c-.37 0-.67-.12-.88-.37-.22-.24-.32-.58-.32-1.03V4.22h2.17v-.88h-2.17V1.6h-.66l-.48 1.6-1.07.47v.55h1.07v4.45zm-1.48-5.39c-.26-.05-.56-.08-.9-.08-.47 0-.9.13-1.29.4-.39.26-.72.64-1 1.12h-.06l-.13-1.38h-.93v7.49h1.13V6.81c0-.74.22-1.35.65-1.84.43-.49.94-.74 1.55-.74.24 0 .51.04.82.1l.16-1.05zm-11.44 1.61c.38-.48.94-.73 1.68-.73.75 0 1.32.25 1.7.74.39.5.58 1.22.58 2.17 0 .97-.19 1.7-.58 2.19-.38.5-.94.75-1.69.75-.74 0-1.3-.25-1.69-.75-.38-.5-.57-1.23-.57-2.19s.19-1.69.57-2.18zm-.12 5.6c.52.32 1.12.47 1.79.47 1.08 0 1.93-.34 2.54-1.03.62-.68.93-1.63.93-2.86 0-1.19-.31-2.13-.93-2.83-.62-.69-1.45-1.04-2.5-1.04-1.08 0-1.93.34-2.54 1.02-.61.68-.92 1.63-.92 2.85 0 .79.15 1.48.43 2.07.28.59.68 1.04 1.2 1.35zm-8.65-3.67c.01-.92.18-1.6.52-2.02.35-.43.9-.64 1.67-.64.66 0 1.18.25 1.54.75.37.5.55 1.22.55 2.15 0 .92-.18 1.64-.55 2.17-.36.52-.87.78-1.52.78-.77 0-1.34-.22-1.69-.68-.35-.45-.52-1.2-.52-2.26v-.25zm0 4.29c0-.39-.03-.81-.08-1.25h.08c.27.38.61.65 1.01.83.41.18.85.27 1.34.27.97 0 1.74-.34 2.29-1.02.54-.68.82-1.64.82-2.87 0-1.22-.27-2.17-.81-2.85-.54-.68-1.31-1.02-2.3-1.02-.5 0-.95.09-1.33.27-.39.18-.73.48-1.02.89H94l-.15-1.02h-.93v10.85h1.14v-3.08zm-8.58-4.29c.01-.92.18-1.6.53-2.02.34-.43.89-.64 1.66-.64.66 0 1.18.25 1.55.75.36.5.54 1.22.54 2.15 0 .92-.18 1.64-.54 2.17-.37.52-.88.78-1.53.78-.77 0-1.33-.22-1.68-.68-.36-.45-.53-1.2-.53-2.26v-.25zm0 4.29c0-.39-.03-.81-.08-1.25h.08c.27.38.61.65 1.02.83.4.18.84.27 1.33.27.98 0 1.74-.34 2.29-1.02.55-.68.82-1.64.82-2.87 0-1.22-.27-2.17-.81-2.85-.54-.68-1.31-1.02-2.3-1.02-.5 0-.94.09-1.33.27-.39.18-.73.48-1.02.89h-.06l-.15-1.02h-.92v10.85h1.13v-3.08zm-4.7-1.29h.06l.16 1.01h.94V3.34H80.8v3.93c0 .97-.18 1.67-.54 2.1-.36.43-.93.64-1.72.64-.59 0-1.03-.15-1.3-.45-.28-.3-.42-.75-.42-1.36V3.34h-1.15v4.9c0 .95.23 1.64.68 2.07.46.44 1.14.65 2.05.65.53 0 1-.09 1.41-.29.41-.2.73-.48.97-.85zM71.13 5.3c-.63-.23-1.09-.43-1.39-.61-.31-.19-.52-.39-.65-.61-.13-.22-.19-.51-.19-.85 0-.47.17-.84.52-1.1.34-.27.82-.4 1.44-.4.78 0 1.58.17 2.4.52l.37-1.01c-.84-.37-1.75-.55-2.74-.55-.96 0-1.72.23-2.3.68-.58.46-.87 1.07-.87 1.84 0 .74.2 1.33.6 1.79.4.45 1.06.85 1.99 1.18.67.24 1.16.45 1.49.63.33.19.56.4.7.62.13.22.2.5.2.85 0 .52-.19.93-.58 1.22-.39.3-.98.44-1.75.44-.48 0-.96-.05-1.44-.15-.48-.1-.93-.23-1.34-.41v1.13c.64.3 1.55.45 2.74.45 1.09 0 1.95-.24 2.59-.73.64-.5.96-1.18.96-2.06 0-.69-.2-1.24-.59-1.67-.4-.43-1.12-.83-2.16-1.2zM60.85 3.6c-.4.26-.73.64-1.01 1.12h-.05l-.13-1.38h-.94v7.49h1.14V6.81c0-.74.21-1.35.64-1.84.43-.49.95-.74 1.56-.74.23 0 .51.04.82.1l.15-1.05c-.26-.05-.56-.08-.89-.08-.47 0-.9.13-1.29.4zm-8.57 1.14c.36-.4.84-.59 1.44-.59s1.05.19 1.37.57c.32.38.48.93.48 1.64h-3.92c.07-.69.28-1.23.63-1.62zm1.75 6.22c.51 0 .94-.03 1.3-.11.35-.07.73-.2 1.14-.37V9.47c-.79.33-1.59.5-2.4.5-.76 0-1.36-.23-1.78-.68-.42-.46-.64-1.12-.66-2h5.16v-.72c0-1.01-.28-1.83-.82-2.45-.55-.61-1.29-.92-2.23-.92-1 0-1.8.35-2.4 1.07-.59.71-.89 1.67-.89 2.87 0 1.2.32 2.14.96 2.81.64.68 1.51 1.01 2.62 1.01zM38.98 6.9c0-.97.17-1.67.5-2.1.33-.42.85-.64 1.56-.64.54 0 .94.15 1.19.45.26.3.39.75.39 1.34v4.88h1.13V6.64c0-.84.17-1.46.51-1.87.33-.4.86-.61 1.56-.61.54 0 .94.15 1.19.45.26.3.38.75.38 1.34v4.88h1.14V5.94c0-.96-.21-1.65-.63-2.09-.42-.43-1.06-.65-1.91-.65-.54 0-1.02.11-1.45.34-.42.23-.74.54-.97.93h-.05c-.36-.85-1.13-1.27-2.3-1.27-.48 0-.92.1-1.31.31-.39.2-.69.49-.9.85h-.06l-.18-1.02h-.92v7.49h1.13V6.9zm-8.26-2.01c.38-.48.94-.73 1.68-.73.75 0 1.32.25 1.7.74.39.5.58 1.22.58 2.17 0 .97-.19 1.7-.58 2.19-.38.5-.95.75-1.69.75s-1.3-.25-1.69-.75c-.38-.5-.57-1.23-.57-2.19s.19-1.69.57-2.18zm-.12 5.6c.52.32 1.12.47 1.78.47 1.09 0 1.94-.34 2.55-1.03.62-.68.93-1.63.93-2.86 0-1.19-.31-2.13-.93-2.83-.62-.69-1.45-1.04-2.5-1.04-1.08 0-1.93.34-2.54 1.02-.61.68-.92 1.63-.92 2.85 0 .79.15 1.48.43 2.07.28.59.68 1.04 1.2 1.35zm-3.73-.46c-.37 0-.67-.12-.88-.37-.22-.24-.32-.58-.32-1.03V4.22h2.17v-.88h-2.17V1.6h-.66l-.48 1.6-1.07.47v.55h1.07v4.45c0 1.53.73 2.29 2.18 2.29.19 0 .4-.02.64-.05.24-.04.42-.09.54-.15v-.87c-.11.03-.25.06-.44.09s-.38.05-.58.05zm-5.84-.29c-.32.19-.77.29-1.37.29-.38 0-.78-.06-1.19-.16-.41-.1-.8-.25-1.16-.43v1.05c.56.32 1.33.47 2.33.47.94 0 1.66-.19 2.18-.56.52-.38.78-.92.78-1.62 0-.49-.15-.91-.47-1.23-.31-.33-.91-.66-1.8-.98-.64-.24-1.08-.43-1.31-.56-.23-.12-.39-.26-.49-.4a.797.797 0 0 1-.16-.51c0-.3.14-.53.41-.7.28-.17.68-.25 1.22-.25.61 0 1.29.15 2.04.46l.41-.92c-.77-.33-1.56-.49-2.37-.49-.86 0-1.55.18-2.04.53-.5.35-.75.83-.75 1.44 0 .35.08.64.22.89.14.24.36.46.65.66.3.19.79.42 1.49.68.73.28 1.23.52 1.48.73.25.21.38.46.38.75 0 .39-.16.67-.48.86zm-9.2 1.22c.52 0 .99-.09 1.41-.29.41-.2.73-.48.96-.85h.06l.17 1.01h.94V3.34h-1.14v3.93c0 .97-.18 1.67-.54 2.1-.36.43-.94.64-1.72.64-.59 0-1.03-.15-1.31-.45-.28-.3-.41-.75-.41-1.36V3.34H9.1v4.9c0 .95.22 1.64.68 2.07.45.44 1.13.65 2.05.65zm-4.66-1.4c-.89.25-1.69.37-2.39.37-1.13 0-2-.36-2.62-1.07-.61-.71-.92-1.72-.92-3.03 0-1.27.32-2.27.96-3 .63-.74 1.5-1.1 2.6-1.1.75 0 1.51.18 2.27.53l.49-1C6.78.88 5.86.69 4.81.69c-.98 0-1.84.21-2.56.63C1.52 1.74.96 2.34.58 3.11.19 3.88 0 4.79 0 5.82c0 1.64.4 2.91 1.2 3.8.8.9 1.93 1.34 3.41 1.34 1.01 0 1.87-.13 2.56-.39V9.56zm0 0"/></svg>