<svg height="29" width="120" xmlns="http://www.w3.org/2000/svg" viewBox="0 0 120 29"><path fill="#444" fill-rule="evenodd" d="M114.53 21.86l-2.52-4.99h-2.78l4.02 7.49V29h2.56v-4.72l4.02-7.41h-2.77l-2.53 4.99zm-12.73 2.09c.86-2.79 1.38-4.54 1.57-5.25.04.2.11.47.21.81.11.35.56 1.83 1.38 4.44h-3.16zm-.02-7.13L97.5 29h2.77l.88-2.89h4.42l.88 2.89h2.78l-4.3-12.18h-3.15zM90.12 26.87h-1.11v-7.9h1.37c2.31 0 3.46 1.31 3.46 3.91 0 2.66-1.24 3.99-3.72 3.99zm.13-10h-3.81V29h3.44c2.14 0 3.79-.53 4.92-1.59 1.14-1.07 1.71-2.6 1.71-4.59 0-1.88-.55-3.34-1.64-4.39-1.1-1.04-2.64-1.56-4.62-1.56zm-17.18 7.08c.86-2.79 1.39-4.54 1.57-5.25.04.2.12.47.22.81.1.35.56 1.83 1.37 4.44h-3.16zm-.02-7.13L68.77 29h2.77l.88-2.89h4.43l.88 2.89h2.77l-4.3-12.18h-3.15zm-12.54 5.79c0 .65.05 1.77.13 3.34h-.06l-5.27-9.08h-3.25V29h2.3v-5.71c0-.69-.05-1.85-.15-3.47h.07L59.56 29h3.27V16.87h-2.32v5.74zM46.44 29h2.57V16.87h-2.57V29zm-5.63-7.38H36v-4.75h-2.57V29H36v-5.24h4.81V29h2.56V16.87h-2.56v4.75zM22.4 19.01h3.3V29h2.57v-9.99h3.29v-2.14H22.4v2.14zM17.96 29h2.57V16.87h-2.57V29zm-5.6-5.51c-.1.4-.21.92-.33 1.56-.13.65-.21 1.19-.27 1.62-.06-.45-.15-.99-.26-1.61-.12-.63-.22-1.09-.3-1.4l-1.76-6.79H7l-1.76 6.79c-.11.37-.22.88-.34 1.54-.12.66-.19 1.15-.23 1.47-.12-.9-.32-1.96-.59-3.18l-1.55-6.62H0L3.1 29h2.92l1.63-6.36c.07-.28.18-.75.31-1.41.13-.66.22-1.14.25-1.44.02.24.1.72.25 1.43s.25 1.18.31 1.41L10.42 29h2.93l3.08-12.13H13.9l-1.54 6.62zm107.16-13.34c-.18.03-.38.04-.58.04-.37 0-.66-.12-.88-.36-.21-.24-.32-.59-.32-1.04V4.38h2.18V3.5h-2.18V1.76h-.66l-.47 1.6-1.08.48v.54h1.08v4.46c0 1.53.72 2.29 2.17 2.29.19 0 .41-.02.65-.06.24-.04.42-.09.54-.15v-.86c-.11.03-.26.06-.45.09zm-7.57-3.18c0-.73.21-1.34.64-1.84.43-.49.95-.73 1.56-.73.23 0 .51.03.82.1l.15-1.05c-.26-.06-.56-.09-.89-.09-.47 0-.9.14-1.29.4-.4.26-.73.64-1.01 1.13h-.05l-.13-1.39h-.94v7.49h1.14V6.97zm-8.27-1.91c.38-.49.94-.73 1.68-.73.76 0 1.32.24 1.71.74.38.49.58 1.22.58 2.17 0 .96-.2 1.69-.58 2.19-.39.5-.95.75-1.69.75-.75 0-1.31-.25-1.69-.75-.38-.5-.58-1.23-.58-2.19 0-.97.19-1.69.57-2.18zm-.11 5.6c.51.31 1.11.47 1.78.47 1.08 0 1.93-.34 2.55-1.03.61-.69.92-1.64.92-2.86 0-1.19-.31-2.13-.93-2.83-.61-.7-1.44-1.05-2.49-1.05-1.09 0-1.93.34-2.55 1.03-.61.68-.91 1.63-.91 2.85 0 .79.14 1.48.42 2.06.28.59.69 1.04 1.21 1.36zm-4.92-1.27c-.37.53-.88.79-1.52.79-.78 0-1.34-.23-1.69-.68-.35-.46-.53-1.21-.53-2.26v-.25c.01-.93.19-1.6.53-2.03.34-.42.89-.63 1.66-.63.66 0 1.18.25 1.55.75.36.5.55 1.21.55 2.15 0 .92-.19 1.64-.55 2.16zm1.72-2.15c0-1.23-.27-2.18-.81-2.86-.54-.68-1.3-1.02-2.3-1.02-.5 0-.94.1-1.33.28-.39.18-.73.48-1.02.89h-.05L94.7 3.5h-.92v10.85h1.13v-3.08c0-.39-.02-.8-.08-1.24h.08c.28.37.61.65 1.02.83.4.18.84.27 1.33.27.98 0 1.74-.34 2.29-1.02.55-.68.82-1.64.82-2.87zm-14.04-.25c.01-.93.19-1.6.53-2.03.34-.42.9-.63 1.66-.63.67 0 1.18.25 1.55.75.37.5.55 1.21.55 2.15 0 .92-.18 1.64-.55 2.16-.37.53-.87.79-1.52.79-.78 0-1.34-.23-1.69-.68-.35-.46-.53-1.21-.53-2.26v-.25zm1.02 3.87c.4.18.85.27 1.34.27.97 0 1.73-.34 2.28-1.02.55-.68.83-1.64.83-2.87 0-1.23-.28-2.18-.81-2.86-.54-.68-1.31-1.02-2.3-1.02-.51 0-.95.1-1.34.28-.38.18-.72.48-1.02.89h-.05l-.16-1.03h-.92v10.85h1.13v-3.08c0-.39-.02-.8-.08-1.24h.08c.28.37.62.65 1.02.83zm-5.69-3.42c0 .97-.18 1.67-.54 2.1-.37.42-.94.64-1.72.64-.6 0-1.03-.15-1.31-.45-.28-.3-.42-.76-.42-1.37V3.5h-1.15v4.9c0 .95.23 1.65.69 2.08.45.43 1.13.65 2.04.65.53 0 1-.1 1.41-.3.42-.19.74-.47.97-.84h.06l.17 1h.93V3.5h-1.13v3.94zm-7.88 2.95c.64-.49.96-1.18.96-2.06 0-.68-.2-1.24-.6-1.66-.39-.43-1.11-.83-2.16-1.21-.62-.22-1.09-.43-1.39-.61-.3-.18-.52-.39-.65-.61-.12-.22-.19-.5-.19-.85 0-.47.18-.83.52-1.1.35-.26.83-.4 1.44-.4.78 0 1.59.18 2.41.52l.36-1.01c-.83-.36-1.75-.54-2.74-.54-.95 0-1.72.22-2.3.68-.57.45-.86 1.07-.86 1.84 0 .73.2 1.33.59 1.78.4.46 1.07.85 2 1.18.66.24 1.16.45 1.48.64.33.19.56.39.7.61.14.22.21.51.21.85 0 .53-.2.94-.59 1.23-.39.29-.97.44-1.75.44-.47 0-.95-.05-1.43-.15-.49-.1-.93-.24-1.34-.41v1.12c.63.31 1.55.46 2.73.46 1.09 0 1.96-.25 2.6-.74zM61.7 3.76c-.39.26-.73.64-1.01 1.13h-.05l-.13-1.39h-.94v7.49h1.14V6.97c0-.73.21-1.34.65-1.84.43-.49.94-.73 1.55-.73.24 0 .51.03.82.1l.16-1.05c-.27-.06-.57-.09-.9-.09-.47 0-.9.14-1.29.4zM53.14 4.9c.36-.39.84-.59 1.44-.59.59 0 1.05.19 1.36.57.32.39.48.93.48 1.65h-3.91c.06-.69.27-1.24.63-1.63zm1.75 6.23c.5 0 .93-.04 1.29-.11.36-.08.74-.2 1.14-.38V9.63c-.79.34-1.59.51-2.39.51-.77 0-1.36-.23-1.78-.69-.42-.45-.65-1.12-.67-2h5.16v-.72c0-1.01-.27-1.82-.82-2.44-.55-.62-1.29-.93-2.23-.93-1 0-1.8.36-2.39 1.07-.6.71-.9 1.67-.9 2.88 0 1.2.32 2.13.96 2.81.64.67 1.52 1.01 2.63 1.01zm-8.04-7.77c-.54 0-1.03.12-1.45.35-.42.22-.75.53-.97.93h-.06c-.36-.85-1.12-1.28-2.29-1.28-.49 0-.92.11-1.31.31-.39.21-.69.49-.91.86h-.05l-.19-1.03h-.92v7.49h1.13V7.06c0-.97.17-1.67.5-2.09.33-.43.85-.64 1.56-.64.54 0 .94.15 1.2.45.25.29.38.74.38 1.34v4.87h1.14V6.81c0-.84.16-1.47.5-1.87.34-.41.86-.61 1.57-.61.53 0 .93.15 1.19.45.25.29.38.74.38 1.34v4.87h1.13V6.1c0-.95-.21-1.65-.63-2.08-.42-.44-1.06-.66-1.9-.66zM34.96 9.43c-.39.5-.95.75-1.69.75-.75 0-1.31-.25-1.69-.75-.39-.5-.58-1.23-.58-2.19 0-.97.19-1.69.57-2.18.38-.49.94-.73 1.68-.73.75 0 1.32.24 1.71.74.38.49.58 1.22.58 2.17 0 .96-.2 1.69-.58 2.19zm1.75-2.19c0-1.19-.31-2.13-.92-2.83-.62-.7-1.45-1.05-2.5-1.05-1.09 0-1.93.34-2.55 1.03-.61.68-.91 1.63-.91 2.85 0 .79.14 1.48.42 2.06.29.59.69 1.04 1.2 1.36.53.31 1.12.47 1.79.47 1.08 0 1.93-.34 2.55-1.03.61-.69.92-1.64.92-2.86zm-11.32 1.6c0 1.53.72 2.29 2.17 2.29.19 0 .41-.02.64-.06.24-.04.43-.09.55-.15v-.86c-.11.03-.26.06-.45.09-.18.03-.38.04-.58.04-.37 0-.66-.12-.88-.36-.21-.24-.32-.59-.32-1.04V4.38h2.17V3.5h-2.17V1.76h-.66l-.47 1.6-1.08.48v.54h1.08v4.46zm-6.37-1.96c.29.19.79.42 1.48.68.74.28 1.23.53 1.49.74.25.2.37.45.37.74 0 .39-.16.68-.47.87-.32.19-.78.28-1.37.28-.38 0-.78-.05-1.19-.16-.42-.1-.8-.24-1.16-.43v1.06c.55.31 1.33.47 2.32.47.94 0 1.67-.19 2.19-.57.52-.38.78-.91.78-1.61 0-.5-.16-.91-.47-1.24-.31-.33-.91-.65-1.8-.98-.65-.24-1.09-.42-1.31-.55-.23-.13-.4-.26-.5-.4a.886.886 0 0 1-.15-.52c0-.29.13-.52.41-.69.27-.17.68-.26 1.21-.26.61 0 1.3.16 2.05.47l.4-.92c-.77-.33-1.56-.5-2.36-.5-.87 0-1.55.18-2.05.53-.5.36-.74.84-.74 1.45 0 .34.07.63.21.88.15.25.37.47.66.66zm-6.34 4.25c.53 0 1-.1 1.41-.3.41-.19.73-.47.97-.84h.06l.16 1h.94V3.5h-1.14v3.94c0 .97-.18 1.67-.54 2.1-.36.42-.93.64-1.72.64-.59 0-1.02-.15-1.3-.45-.28-.3-.42-.76-.42-1.37V3.5H9.95v4.9c0 .95.23 1.65.68 2.08.45.43 1.14.65 2.05.65zm-7.22 0c1.02 0 1.87-.13 2.56-.39V9.72c-.89.25-1.68.38-2.38.38-1.14 0-2.01-.36-2.62-1.07C2.4 8.31 2.1 7.3 2.1 6c0-1.28.32-2.28.95-3.01.64-.73 1.5-1.1 2.6-1.1.76 0 1.52.18 2.27.54l.49-1c-.78-.38-1.7-.57-2.74-.57-.99 0-1.84.2-2.57.62-.73.42-1.28 1.02-1.67 1.8-.38.77-.58 1.67-.58 2.7 0 1.65.4 2.92 1.2 3.81.8.89 1.94 1.34 3.41 1.34zm0 0"/></svg>