<?xml version="1.0" encoding="UTF-8" standalone="no"?>
<svg width="37px" height="28px" viewBox="0 0 37 28" version="1.1" xmlns="http://www.w3.org/2000/svg" xmlns:xlink="http://www.w3.org/1999/xlink">
    <!-- Generator: Sketch 3.6 (26304) - http://www.bohemiancoding.com/sketch -->
    <title>Group 2</title>
    <desc>Created with Sketch.</desc>
    <defs></defs>
    <g id="Page-1" stroke="none" stroke-width="1" fill="none" fill-rule="evenodd">
        <g id="Group-2">
            <rect id="Rectangle" fill="#000066" x="0" y="0" width="37" height="28" rx="1.80006612"></rect>
            <path d="M21.2014262,14.226521 C21.2014262,19.2563736 17.2072916,23.3333333 12.2799375,23.3333333 C7.35244238,23.3333333 3.35802581,19.2563736 3.35802581,14.226521 C3.35802581,9.1968123 7.35244238,5.11942083 12.2799375,5.11942083 C17.2072916,5.11942083 21.2014262,9.1968123 21.2014262,14.226521" id="Fill-333" fill="#CC0000"></path>
            <path d="M24.2578295,5.11942083 C21.9520624,5.11942083 19.8518602,6.01215527 18.2682491,7.47668301 C17.9460846,7.77517266 17.6453508,8.09755297 17.3677394,8.44080166 L19.1703096,8.44080166 C19.4164799,8.74677514 19.6433344,9.06843586 19.8504503,9.40535207 L16.6874578,9.40535207 C16.4982478,9.71492353 16.3262388,10.0365843 16.1734044,10.3699025 L20.3642216,10.3699025 C20.5074684,10.6820645 20.6335143,11.0035813 20.7420775,11.3340212 L15.7955485,11.3340212 C15.6926251,11.6480541 15.6057747,11.9698588 15.5364071,12.2979958 L21.000937,12.2979958 C21.1317766,12.9197293 21.2014262,13.5647779 21.2014262,14.226521 C21.2014262,15.2375575 21.0399915,16.2107431 20.7420775,17.1195966 L15.7955485,17.1195966 C15.9041117,17.4497485 16.0301576,17.7716971 16.1731225,18.0842908 L20.3642216,18.0842908 C20.2111053,18.4167456 20.0399422,18.7386942 19.8496043,19.0486973 L16.6874578,19.0486973 C16.8937276,19.3846062 17.1210052,19.7066987 17.3677394,20.0122404 L19.1697456,20.0122404 C18.8926983,20.3557768 18.5916824,20.6781572 18.268531,20.9766469 C19.8520012,22.4411746 21.9520624,23.3333333 24.2578295,23.3333333 C29.1850426,23.3333333 33.1793182,19.2563736 33.1793182,14.226521 C33.1793182,9.19724406 29.1850426,5.11942083 24.2578295,5.11942083" id="Fill-334" fill="#FF9900"></path>
            <path d="M10.1965132,15.2235973 C10.0948587,15.2117958 10.0500236,15.208054 9.98023303,15.208054 C9.43121396,15.208054 9.15360265,15.4003308 9.15360265,15.7801351 C9.15360265,16.0140047 9.28909501,16.1626739 9.50058154,16.1626739 C9.8952154,16.1626739 10.1795943,15.7792716 10.1965132,15.2235973 L10.1965132,15.2235973 L10.1965132,15.2235973 Z M10.9010453,16.8975284 L10.0982425,16.8975284 L10.1167123,16.5082253 C9.87195188,16.815638 9.54527569,16.9624362 9.10157696,16.9624362 C8.57680838,16.9624362 8.21685831,16.5442053 8.21685831,15.936432 C8.21685831,15.0215339 8.84271744,14.4880233 9.91721,14.4880233 C10.027324,14.4880233 10.168033,14.4983855 10.3121258,14.5169511 C10.3420159,14.3928923 10.3499114,14.3402176 10.3499114,14.2732949 C10.3499114,14.0246015 10.1812862,13.9313415 9.728846,13.9313415 C9.25497518,13.9264483 8.86414808,14.0469091 8.70355931,14.1007351 C8.71371066,14.0382739 8.83792375,13.2557821 8.83792375,13.2557821 C9.32039502,13.1109988 9.63875274,13.0568849 9.99701088,13.0568849 C10.8288579,13.0568849 11.2694549,13.4379845 11.2684679,14.1584469 C11.2701598,14.3517312 11.2387189,14.5893428 11.1900769,14.9028001 C11.1060463,15.4468168 10.9255778,16.6135745 10.9010453,16.8975284 L10.9010453,16.8975284 L10.9010453,16.8975284 Z" id="Fill-336" fill="#000066"></path>
            <path d="M7.81150914,16.8975284 L6.84275985,16.8975284 L7.39798247,13.3467394 L6.15881241,16.8975284 L5.49883345,16.8975284 L5.41719965,13.3666003 L4.83406079,16.8975284 L3.92748854,16.8975284 L4.68475131,12.2781349 L6.07760158,12.2781349 L6.16177322,14.8637978 L7.0115261,12.2781349 L8.56059442,12.2781349 L7.81150914,16.8975284" id="Fill-337" fill="#000066"></path>
            <path d="M25.4545613,15.2235973 C25.3529068,15.2117958 25.3086356,15.208054 25.2389861,15.208054 C24.689544,15.208054 24.4122147,15.4003308 24.4122147,15.7801351 C24.4122147,16.0140047 24.5471431,16.1626739 24.7591936,16.1626739 C25.1535455,16.1626739 25.4380654,15.7792716 25.4545613,15.2235973 L25.4545613,15.2235973 L25.4545613,15.2235973 Z M26.1595164,16.8975284 L25.3569955,16.8975284 L25.3751834,16.5082253 C25.1304229,16.815638 24.8038877,16.9624362 24.360471,16.9624362 C23.8349974,16.9624362 23.4754704,16.5442053 23.4754704,15.936432 C23.4754704,15.0215339 24.1016115,14.4880233 25.175822,14.4880233 C25.2857951,14.4880233 25.4262221,14.4983855 25.5704559,14.5169511 C25.600487,14.3928923 25.6082415,14.3402176 25.6082415,14.2732949 C25.6082415,14.0246015 25.4396162,13.9313415 24.9871761,13.9313415 C24.5133053,13.9264483 24.1226191,14.0469091 23.9614664,14.1007351 C23.9721817,14.0382739 24.0966767,13.2557821 24.0966767,13.2557821 C24.5788661,13.1109988 24.8975058,13.0568849 25.2552,13.0568849 C26.087611,13.0568849 26.5276439,13.4379845 26.526798,14.1584469 C26.5284899,14.3517312 26.4973309,14.5893428 26.448407,14.9028001 C26.3646583,15.4468168 26.1837669,16.6135745 26.1595164,16.8975284 L26.1595164,16.8975284 L26.1595164,16.8975284 Z" id="Fill-338" fill="#000066"></path>
            <path d="M15.2055012,16.8403922 C14.940297,16.9255927 14.7337452,16.9624362 14.5095694,16.9624362 C14.01455,16.9624362 13.7442703,16.672006 13.7442703,16.1370561 C13.7373616,15.9709728 13.8154707,15.5341762 13.8769428,15.1358062 C13.9330572,14.7847859 14.297096,12.572163 14.297096,12.572163 L15.2596416,12.572163 L15.1472718,13.1407901 L15.7288598,13.1407901 L15.5975972,14.0437428 L15.0140353,14.0437428 C14.9022295,14.7580167 14.7427686,15.6480167 14.7409358,15.7660309 C14.7409358,15.959747 14.8421673,16.0443718 15.0726876,16.0443718 C15.1830836,16.0443718 15.2685241,16.0328583 15.333803,16.0089675 L15.2055012,16.8403922" id="Fill-339" fill="#000066"></path>
            <path d="M18.1572891,16.8100251 C17.8265241,16.9132156 17.5077435,16.9635875 17.169506,16.9624362 C16.0916297,16.960997 15.5297805,16.386757 15.5297805,15.2864903 C15.5297805,14.0024379 16.244464,13.0568849 17.2149051,13.0568849 C18.0085436,13.0568849 18.5156883,13.5862219 18.5156883,14.4160634 C18.5156883,14.6919576 18.4810045,14.9607998 18.3968329,15.3401723 L16.479637,15.3401723 C16.4149221,15.8851965 16.7564023,16.112158 17.3168416,16.112158 C17.6610007,16.112158 17.972027,16.0396225 18.3175959,15.8759857 L18.1572891,16.8100251 L18.1572891,16.8100251 L18.1572891,16.8100251 Z M17.6161656,14.5830103 C17.6216642,14.504574 17.7181021,13.9123441 17.1678142,13.9123441 C16.8615816,13.9123441 16.6420587,14.1509631 16.5530933,14.5830103 L17.6161656,14.5830103 L17.6161656,14.5830103 L17.6161656,14.5830103 Z" id="Fill-340" fill="#000066"></path>
            <path d="M11.4819283,14.3285601 C11.4819283,14.8033515 11.707514,15.1310569 12.2193114,15.3773036 C12.6114073,15.5656947 12.6724565,15.6213915 12.6724565,15.7919365 C12.6724565,16.0258062 12.4993195,16.1320189 12.1162469,16.1320189 C11.8270744,16.1320189 11.5583454,16.0856768 11.2483062,15.9833498 C11.2483062,15.9833498 11.1212733,16.8117521 11.1152107,16.8513301 C11.3352977,16.8999749 11.5315572,16.9453097 12.1231554,16.9624362 C13.1450583,16.9624362 13.6170963,16.5652175 13.6170963,15.706736 C13.6170963,15.1906396 13.4197089,14.8876885 12.9344178,14.6597195 C12.5285046,14.4696015 12.4815546,14.4270012 12.4815546,14.2517069 C12.4815546,14.0486361 12.6427074,13.94487 12.9555664,13.94487 C13.1457633,13.94487 13.4053279,13.9655944 13.6516391,14.0011426 L13.7893873,13.1298522 C13.5387054,13.089123 13.1583115,13.0568849 12.9369556,13.0568849 C11.8535806,13.0568849 11.4784035,13.634435 11.4819283,14.3285601" id="Fill-341" fill="#000066"></path>
            <path d="M22.86794,13.1560457 C23.1369509,13.1560457 23.3881969,13.2274298 23.7334839,13.4054586 L23.8920988,12.4029134 C23.7496979,12.3459212 23.2504487,12.0118833 22.8274756,12.0118833 C22.1794809,12.0118833 21.6310258,12.3405961 21.2459794,12.8818785 C20.6837072,12.6919043 20.452341,13.0758823 20.1692309,13.458709 L19.917562,13.5185796 C19.9365958,13.3926497 19.9539377,13.2675835 19.948439,13.1407901 L19.0585037,13.1407901 C18.9372514,14.3038059 18.7219582,15.4813576 18.5534738,16.6448051 L18.5093437,16.8975284 L19.478375,16.8975284 C19.6400917,15.8247503 19.728493,15.1381089 19.7823515,14.6729602 L20.1472364,14.4665792 C20.2020819,14.2591908 20.3722581,14.1895337 20.7145842,14.1980249 C20.6698901,14.4429764 20.6456396,14.7010245 20.6456396,14.9679958 C20.6456396,16.1972147 21.2961721,16.9624362 22.3383777,16.9624362 C22.6069657,16.9624362 22.837627,16.9264562 23.1947572,16.8271515 L23.3645105,15.7745222 C23.0433329,15.9355684 22.7803847,16.0114142 22.5419688,16.0114142 C21.9788507,16.0114142 21.6380753,15.5869948 21.6380753,14.8859615 C21.6380753,13.8685925 22.1445151,13.1560457 22.86794,13.1560457" id="Fill-342" fill="#000066"></path>
            <path d="M31.0682597,12.2781349 L30.8529665,13.6127031 C30.5886082,13.2570773 30.3040884,12.9994609 29.9284883,12.9994609 C29.4398134,12.9994609 28.9949868,13.3776821 28.7036994,13.9346516 C28.2980682,13.8487316 27.8789018,13.702653 27.8789018,13.702653 L27.8786199,13.706251 C27.9109068,13.3949525 27.924583,13.205554 27.9213401,13.1407901 L27.0315458,13.1407901 C26.9107166,14.3038059 26.6951413,15.4813576 26.526798,16.6448051 L26.4822448,16.8975284 L27.4515581,16.8975284 C27.5823977,16.0305555 27.6823604,15.3098053 27.7560986,14.7390193 C28.0874276,14.4333337 28.253233,14.1675139 28.5872407,14.1847842 C28.4390592,14.5506284 28.3526316,14.9717376 28.3526316,15.4037849 C28.3526316,16.3425736 28.8176201,16.9624362 29.5220112,16.9624362 C29.8770266,16.9624362 30.1494212,16.8373698 30.4150483,16.5478033 L30.3693672,16.8972405 L31.2858088,16.8972405 L32.0236148,12.2781349 L31.0682597,12.2781349 L31.0682597,12.2781349 L31.0682597,12.2781349 Z M29.8570058,16.029692 C29.5273689,16.029692 29.3604355,15.7801351 29.3604355,15.2890808 C29.3604355,14.5506284 29.6724486,14.0271921 30.1116356,14.0271921 C30.4445154,14.0271921 30.624984,14.2856721 30.624984,14.7629101 C30.624984,15.5076949 30.3077541,16.029692 29.8570058,16.029692 L29.8570058,16.029692 L29.8570058,16.029692 Z" id="Fill-343" fill="#000066"></path>
            <path d="M8.09010739,16.6233612 L7.12164008,16.6233612 L7.67672172,13.0725722 L6.43783363,16.6233612 L5.77757269,16.6233612 L5.69607988,13.0931527 L5.11280003,16.6233612 L4.20622779,16.6233612 L4.96349055,12.0043995 L6.35634083,12.0043995 L6.39525435,14.8637978 L7.33510048,12.0043995 L8.83933366,12.0043995 L8.09010739,16.6233612" id="Fill-344" fill="#FFFFFF"></path>
            <path d="M10.4752524,14.9500058 C10.3737389,14.9379165 10.3289038,14.9346064 10.2591132,14.9346064 C9.7100942,14.9346064 9.43234189,15.1265953 9.43234189,15.5061118 C9.43234189,15.7396936 9.56797525,15.8892263 9.77960277,15.8892263 C10.1740957,15.8892263 10.4584746,15.505824 10.4752524,14.9500058 L10.4752524,14.9500058 L10.4752524,14.9500058 Z M11.1796436,16.6233612 L10.3772637,16.6233612 L10.3955926,16.234346 C10.1508321,16.5416147 9.82415593,16.6885568 9.38045719,16.6885568 C8.85554762,16.6885568 8.49573855,16.2697502 8.49573855,15.6621209 C8.49573855,14.7470789 9.12173868,14.2142878 10.1962312,14.2142878 C10.3060632,14.2142878 10.4467723,14.2245061 10.5910061,14.2435036 C10.6208961,14.1191568 10.6287916,14.0663383 10.6287916,13.9991277 C10.6287916,13.7505783 10.4601664,13.6580379 10.0077262,13.6580379 C9.53371443,13.6522811 9.14302831,13.7727419 8.98229856,13.826424 C8.9925909,13.7642507 9.116663,12.9817587 9.116663,12.9817587 C9.59927525,12.8372633 9.91763293,12.7827177 10.2758912,12.7827177 C11.1075971,12.7827177 11.5480531,13.1642491 11.5473482,13.8844237 C11.5488991,14.0774201 11.5177401,14.3161831 11.4689571,14.6287768 C11.3847855,15.1723619 11.204317,16.3398392 11.1796436,16.6233612 L11.1796436,16.6233612 L11.1796436,16.6233612 Z" id="Fill-345" fill="#FFFFFF"></path>
            <path d="M24.1706971,12.1287462 L24.0120822,13.1311476 C23.6662312,12.9536944 23.4156902,12.8818785 23.1469612,12.8818785 C22.4238183,12.8818785 21.9165326,13.5952888 21.9165326,14.6128017 C21.9165326,15.313835 22.257449,15.7373909 22.8205671,15.7373909 C23.0591239,15.7373909 23.3226361,15.6621209 23.6431086,15.5004989 L23.4729325,16.5531283 C23.1163663,16.652289 22.885564,16.6885568 22.617117,16.6885568 C21.5742065,16.6885568 20.9246609,15.9231914 20.9246609,14.6942603 C20.9246609,13.0429246 21.8226327,11.8888319 23.1062149,11.8888319 C23.5291879,11.8888319 24.0287191,12.071754 24.1706971,12.1287462" id="Fill-346" fill="#FFFFFF"></path>
            <path d="M25.7331595,14.9500058 C25.6322099,14.9379165 25.5872339,14.9346064 25.5175842,14.9346064 C24.9688472,14.9346064 24.6909539,15.1265953 24.6909539,15.5061118 C24.6909539,15.7396936 24.8264463,15.8892263 25.0379328,15.8892263 C25.4322847,15.8892263 25.7169456,15.505824 25.7331595,14.9500058 L25.7331595,14.9500058 L25.7331595,14.9500058 Z M26.4381146,16.6233612 L25.6357347,16.6233612 L25.6539226,16.234346 C25.4091622,16.5416147 25.082486,16.6885568 24.6392102,16.6885568 C24.1137367,16.6885568 23.7543506,16.2697502 23.7543506,15.6621209 C23.7543506,14.7470789 24.3797868,14.2142878 25.4545613,14.2142878 C25.5643932,14.2142878 25.7048204,14.2245061 25.8489132,14.2435036 C25.8789442,14.1191568 25.8868397,14.0663383 25.8868397,13.9991277 C25.8868397,13.7505783 25.7186375,13.6580379 25.2659153,13.6580379 C24.7923265,13.6522811 24.4017813,13.7727419 24.2407696,13.826424 C24.250921,13.7642507 24.375134,12.9817587 24.375134,12.9817587 C24.8577463,12.8372633 25.175822,12.7827177 25.5340802,12.7827177 C26.3657862,12.7827177 26.8066652,13.1642491 26.8055372,13.8844237 C26.8075111,14.0774201 26.7760701,14.3161831 26.7272872,14.6287768 C26.6433975,15.1723619 26.4629291,16.3398392 26.4381146,16.6233612 L26.4381146,16.6233612 L26.4381146,16.6233612 Z" id="Fill-347" fill="#FFFFFF"></path>
            <path d="M15.4840994,16.5663689 C15.2191773,16.6515694 15.0123434,16.6885568 14.7884497,16.6885568 C14.2932892,16.6885568 14.0228684,16.3979827 14.0228684,15.8636085 C14.0161009,15.6969494 14.0943509,15.2608725 14.155964,14.8620707 C14.2116555,14.5107626 14.5758353,12.2984277 14.5758353,12.2984277 L15.538663,12.2984277 L15.4260111,12.8669108 L15.9203256,12.8669108 L15.78864,13.7695757 L15.2927746,13.7695757 C15.1809688,14.4845691 15.0215079,15.3739935 15.0195339,15.4920077 C15.0195339,15.6862994 15.1211885,15.7703485 15.3514268,15.7703485 C15.4618228,15.7703485 15.5471224,15.7592668 15.6126832,15.7348004 L15.4840994,16.5663689" id="Fill-348" fill="#FFFFFF"></path>
            <path d="M18.4364514,16.5365775 C18.1055454,16.6400558 17.7860597,16.6888447 17.4482453,16.6885568 C16.370228,16.6878372 15.8088017,16.1128776 15.8088017,15.0127548 C15.8088017,13.7282707 16.5233442,12.7827177 17.4930805,12.7827177 C18.2875648,12.7827177 18.7944275,13.3120547 18.7944275,14.1429036 C18.7944275,14.4182222 18.7591798,14.6869204 18.675995,15.0664368 L16.7585172,15.0664368 C16.6935203,15.6114611 17.0354236,15.8388544 17.5952989,15.8388544 C17.9397399,15.8388544 18.2506251,15.7660309 18.5966172,15.6019624 L18.4364514,16.5365775 L18.4364514,16.5365775 L18.4364514,16.5365775 Z M17.8951868,14.3088431 C17.9004035,14.2302629 17.9972643,13.6383208 17.4471173,13.6383208 C17.1406028,13.6383208 16.9210799,13.8773716 16.8318326,14.3088431 L17.8951868,14.3088431 L17.8951868,14.3088431 L17.8951868,14.3088431 Z" id="Fill-349" fill="#FFFFFF"></path>
            <path d="M11.7605266,14.0543929 C11.7605266,14.5300479 11.9863942,14.8570335 12.4983326,15.1035681 C12.8904286,15.2918153 12.9511957,15.3475122 12.9511957,15.5182011 C12.9511957,15.7523585 12.7781997,15.8579957 12.3948452,15.8579957 C12.1059546,15.8579957 11.8370847,15.8122292 11.5269045,15.7101901 C11.5269045,15.7101901 11.4000125,16.5380167 11.3940909,16.577019 C11.6140369,16.6262396 11.8104374,16.6711424 12.4017537,16.6885568 C13.4239387,16.6885568 13.8959765,16.2914821 13.8959765,15.4330006 C13.8959765,14.9166164 13.6983071,14.6138092 13.2131571,14.3864159 C12.8071029,14.1957222 12.7604349,14.1535537 12.7604349,13.9779716 C12.7604349,13.7749007 12.9214466,13.6704149 13.2345877,13.6704149 C13.4243616,13.6704149 13.6842081,13.6920029 13.9303784,13.7274071 L14.0682675,12.8562607 C13.8174445,12.8158192 13.4373328,12.7827177 13.2158359,12.7827177 C12.1321789,12.7827177 11.7572838,13.3604118 11.7605266,14.0543929" id="Fill-350" fill="#FFFFFF"></path>
            <path d="M31.5645481,16.6233612 L30.6483884,16.6233612 L30.6937875,16.2737799 C30.4280195,16.5634905 30.1557658,16.6885568 29.8007504,16.6885568 C29.0969232,16.6885568 28.6312299,16.0694138 28.6312299,15.1296177 C28.6312299,13.8801061 29.3532449,12.8269011 30.2072276,12.8269011 C30.5828276,12.8269011 30.8672065,12.9834858 31.1321286,13.3392555 L31.346999,12.0043995 L32.3022131,12.0043995 L31.5645481,16.6233612 L31.5645481,16.6233612 L31.5645481,16.6233612 Z M30.1356041,15.7553809 C30.5869163,15.7553809 30.9035821,15.2336717 30.9035821,14.4896063 C30.9035821,14.0122245 30.7232546,13.752881 30.3903749,13.752881 C29.9510469,13.752881 29.6391748,14.2764612 29.6391748,15.0152014 C29.6391748,15.5068314 29.8062491,15.7553809 30.1356041,15.7553809 L30.1356041,15.7553809 L30.1356041,15.7553809 Z" id="Fill-351" fill="#FFFFFF"></path>
            <path d="M27.310567,12.8669108 C27.1894558,14.0296387 26.9740215,15.2071904 26.8055372,16.3707819 L26.7614071,16.6233612 L27.7301563,16.6233612 C28.0767123,14.3261135 28.1600379,13.8778033 28.7036994,13.9337882 C28.7901268,13.4636022 28.9512795,13.0518477 29.0712629,12.8443153 C28.6656317,12.7579635 28.4390592,12.9919771 28.1421321,13.4366893 C28.1658185,13.2442685 28.2085388,13.0576045 28.2005023,12.8669108 L27.310567,12.8669108" id="Fill-352" fill="#FFFFFF"></path>
            <path d="M19.3376659,12.8669108 C19.2159907,14.0296387 19.0002744,15.2071904 18.8320721,16.3707819 L18.7880829,16.6233612 L19.7571142,16.6233612 C20.1038111,14.3261135 20.1868549,13.8778033 20.7296703,13.9337882 C20.8166617,13.4636022 20.9780965,13.0518477 21.0977979,12.8443153 C20.6925896,12.7579635 20.4655941,12.9919771 20.1692309,13.4366893 C20.1926355,13.2442685 20.2356377,13.0576045 20.2271783,12.8669108 L19.3376659,12.8669108" id="Fill-353" fill="#FFFFFF"></path>
        </g>
    </g>
</svg>