<?xml version="1.0" encoding="UTF-8" standalone="no"?>
<svg width="36px" height="28px" viewBox="0 0 36 28" version="1.1" xmlns="http://www.w3.org/2000/svg" xmlns:xlink="http://www.w3.org/1999/xlink">
    <!-- Generator: Sketch 3.6 (26304) - http://www.bohemiancoding.com/sketch -->
    <title>Group</title>
    <desc>Created with Sketch.</desc>
    <defs></defs>
    <g id="Page-1" stroke="none" stroke-width="1" fill="none" fill-rule="evenodd">
        <g id="Group">
            <rect id="Rectangle" fill="#0072CE" x="0" y="0" width="36" height="28" rx="1.80006612"></rect>
            <path d="M33.4751936,16.1772721 L31.8802194,16.1772721 C31.720976,16.1772721 31.6151818,16.183418 31.5260629,16.2454458 C31.4337415,16.3065631 31.3981823,16.3972716 31.3981823,16.5170023 C31.3981823,16.6593818 31.4761475,16.7562362 31.5895615,16.7981192 C31.681883,16.8312387 31.7810512,16.8409128 31.9268219,16.8409128 L32.4011288,16.8540011 C32.8797425,16.8661791 33.1992232,16.9509694 33.3940259,17.1577667 C33.4294746,17.1865613 33.4507881,17.218884 33.4751936,17.2512067 L33.4751936,16.1772721 L33.4751936,16.1772721 Z M33.4751936,18.6655545 C33.2626114,18.9859367 32.8483797,19.1483471 32.2876043,19.1483471 L30.5975479,19.1483471 L30.5975479,18.3390265 L32.2807575,18.3390265 C32.4477312,18.3390265 32.5645686,18.3163779 32.634914,18.2455865 C32.6958727,18.1872007 32.7383891,18.1024104 32.7383891,17.9994101 C32.7383891,17.8894671 32.6958727,17.802173 32.6314906,17.7498192 C32.567992,17.6922302 32.4755601,17.6660533 32.3231635,17.6660533 C31.5014365,17.6372587 30.4762932,17.6922302 30.4762932,16.4978819 C30.4762932,15.9504438 30.8135535,15.3742112 31.7319088,15.3742112 L33.4750832,15.3742112 L33.4750832,14.6232764 L31.8554826,14.6232764 C31.3667091,14.6232764 31.0116691,14.7439176 30.7602147,14.9314806 L30.7602147,14.6232764 L28.3646061,14.6232764 C27.9815163,14.6232764 27.5318359,14.7211551 27.3191432,14.9314806 L27.3191432,14.6232764 L23.0412155,14.6232764 L23.0412155,14.9314806 C22.7007526,14.6783616 22.1262836,14.6232764 21.8611355,14.6232764 L19.0393686,14.6232764 L19.0393686,14.9314806 C18.7700241,14.6626555 18.1710391,14.6232764 17.8059498,14.6232764 L14.6479164,14.6232764 L13.9252472,15.4292964 L13.2484074,14.6232764 L8.530959,14.6232764 L8.530959,19.8896078 L13.1596198,19.8896078 L13.9042651,19.0708408 L14.6057312,19.8896078 L17.458861,19.8922255 L17.458861,18.6533766 L17.7393591,18.6533766 C18.1179212,18.6594087 18.5643991,18.6437025 18.9583112,18.4682037 L18.9583112,19.8894941 L21.3116243,19.8894941 L21.3116243,18.5169154 L21.4251487,18.5169154 C21.5700359,18.5169154 21.5842817,18.5230613 21.5842817,18.6722695 L21.5842817,19.8893802 L28.7332292,19.8893802 C29.1871061,19.8893802 29.6615234,19.7696495 29.9242419,19.5523814 L29.9242419,19.8893802 L32.1918595,19.8893802 C32.6637368,19.8893802 33.124571,19.8212065 33.4751936,19.6466181 L33.4751936,18.6655545 L33.4751936,18.6655545 L33.4751936,18.6655545 Z M29.9843171,17.1577667 C30.1547142,17.3395253 30.2460418,17.5689713 30.2460418,17.9574132 C30.2460418,18.7693515 29.7538449,19.1483471 28.8712696,19.1483471 L27.1667466,19.1483471 L27.1667466,18.3390265 L28.8644228,18.3390265 C29.0304026,18.3390265 29.1481235,18.3163779 29.2218923,18.2455865 C29.2820779,18.1872007 29.325257,18.1024104 29.325257,17.9994101 C29.325257,17.8894671 29.2785441,17.802173 29.2184689,17.7498192 C29.1515469,17.6922302 29.0592255,17.6660533 28.9068289,17.6660533 C28.0884148,17.6372587 27.0634923,17.6922302 27.0634923,16.4978819 C27.0634923,15.9504438 27.3972189,15.3742112 28.3146907,15.3742112 L30.0691292,15.3742112 L30.0691292,16.1774997 L28.4637743,16.1774997 C28.3046413,16.1774997 28.2011662,16.1836456 28.1131517,16.2456734 C28.0172964,16.3067907 27.9817372,16.3974993 27.9817372,16.51723 C27.9817372,16.6596095 28.0631258,16.7564638 28.1732269,16.7983469 C28.2655483,16.8314663 28.3647165,16.8411403 28.5138002,16.8411403 L28.9849045,16.8542287 C29.4599844,16.8661791 29.7860911,16.9508556 29.9843171,17.1577667 L29.9843171,17.1577667 L29.9843171,17.1577667 Z M22.0875218,16.9246787 C21.9704636,16.9962667 21.8256868,17.0024126 21.6554001,17.0024126 L20.592268,17.0024126 L20.592268,16.1547372 L21.6698667,16.1547372 C21.8256868,16.1547372 21.9816172,16.1581516 22.0875218,16.2229109 C22.2009358,16.2840282 22.2687413,16.4009136 22.2687413,16.5624136 C22.2687413,16.7239135 22.2009358,16.8540011 22.0875218,16.9246787 L22.0875218,16.9246787 L22.0875218,16.9246787 Z M22.616051,17.3943829 C22.8108536,17.4684748 22.970097,17.6012939 23.0447493,17.7112368 C23.1683231,17.8954993 23.1862131,18.0674699 23.189747,18.4001438 L23.189747,19.1483471 L22.3111473,19.1483471 L22.3111473,18.6761391 C22.3111473,18.4490832 22.3323503,18.1128811 22.1696835,17.9373822 C22.0418028,17.802173 21.8468898,17.7698502 21.5276299,17.7698502 L20.5923785,17.7698502 L20.5923785,19.1483471 L19.7130058,19.1483471 L19.7130058,15.3740974 L21.7334758,15.3740974 C22.1765303,15.3740974 22.4992136,15.3942422 22.7864481,15.5522139 C23.0626393,15.7241846 23.2363494,15.9597764 23.2363494,16.3903291 C23.236239,16.9927386 22.8464128,17.3001461 22.616051,17.3943829 L22.616051,17.3943829 L22.616051,17.3943829 Z M23.7215891,15.3740974 L26.6424139,15.3740974 L26.6424139,16.1546234 L24.593121,16.1546234 L24.593121,16.8407989 L26.592388,16.8407989 L26.592388,17.6108542 L24.593121,17.6108542 L24.593121,18.361789 L26.6424139,18.3652034 L26.6424139,19.1483471 L23.7215891,19.1483471 L23.7215891,15.3740974 L23.7215891,15.3740974 L23.7215891,15.3740974 Z M17.8171035,17.1158837 L16.686166,17.1158837 L16.686166,16.1547372 L17.8272633,16.1547372 C18.1432102,16.1547372 18.3625288,16.2874426 18.3625288,16.6174988 C18.3625288,16.9439131 18.15337,17.1158837 17.8171035,17.1158837 L17.8171035,17.1158837 L17.8171035,17.1158837 Z M15.8145236,18.8050886 L14.4708934,17.2677095 L15.8145236,15.779156 L15.8145236,18.8050886 L15.8145236,18.8050886 L15.8145236,18.8050886 Z M12.3446292,18.361789 L10.1929656,18.361789 L10.1929656,17.6108542 L12.1142674,17.6108542 L12.1142674,16.8407989 L10.1929656,16.8407989 L10.1929656,16.1546234 L12.3870352,16.1546234 L13.3442627,17.2545073 L12.3446292,18.361789 L12.3446292,18.361789 L12.3446292,18.361789 Z M19.3020871,16.6174988 C19.3020871,17.6659394 18.5430857,17.8824108 17.7781209,17.8824108 L16.686166,17.8824108 L16.686166,19.1483471 L14.9851767,19.1483471 L13.907578,17.8989136 L12.7876837,19.1483471 L9.32121278,19.1483471 L9.32121278,15.3740974 L12.8410225,15.3740974 L13.9177378,16.6112391 L15.0308957,15.3740974 L17.8272633,15.3740974 C18.5217722,15.3740974 19.3020871,15.5722449 19.3020871,16.6174988 L19.3020871,16.6174988 L19.3020871,16.6174988 Z" id="EXPRESS" fill="#FFFFFF"></path>
            <path d="M5.14587669,11.0246393 L4.54689171,9.52037967 L3.95133013,11.0246393 L5.14587669,11.0246393 L5.14587669,11.0246393 Z M18.3414362,10.4256442 C18.2211754,10.5008742 18.0789386,10.5033781 17.9085415,10.5033781 L16.8454094,10.5033781 L16.8454094,9.66526296 L17.9230081,9.66526296 C18.0755152,9.66526296 18.2346481,9.67231934 18.3380128,9.73332283 C18.4515373,9.78829426 18.5217722,9.9052935 18.5217722,10.0669072 C18.5217722,10.2318215 18.4549607,10.3645269 18.3414362,10.4256442 L18.3414362,10.4256442 L18.3414362,10.4256442 Z M25.925708,11.0246393 L25.3200971,9.52037967 L24.7177992,11.0246393 L25.925708,11.0246393 L25.925708,11.0246393 L25.925708,11.0246393 Z M11.7881607,12.6528408 L10.8910084,12.6528408 L10.8876954,9.69758571 L9.61871749,12.6528408 L8.85032931,12.6528408 L7.5780384,9.69496802 L7.5780384,12.6528408 L5.79809005,12.6528408 L5.46182359,11.8111974 L3.63969009,11.8111974 L3.30000023,12.6528408 L2.34950914,12.6528408 L3.91665438,8.87950155 L5.21688468,8.87950155 L6.70529167,12.4520756 L6.70529167,8.87950155 L8.13362347,8.87950155 L9.2789172,11.4392582 L10.331006,8.87950155 L11.7880502,8.87950155 L11.7880502,12.6528408 L11.7881607,12.6528408 L11.7881607,12.6528408 Z M15.3638492,12.6528408 L12.440374,12.6528408 L12.440374,8.87950155 L15.3638492,8.87950155 L15.3638492,9.66526296 L13.3155503,9.66526296 L13.3155503,10.3454064 L15.3147068,10.3454064 L15.3147068,11.118876 L13.3155503,11.118876 L13.3155503,11.8724285 L15.3638492,11.8724285 L15.3638492,12.6528408 L15.3638492,12.6528408 L15.3638492,12.6528408 Z M19.4858465,9.89573325 C19.4858465,10.497346 19.0962412,10.808168 18.8691923,10.9014942 C19.060682,10.9766104 19.2242323,11.1093158 19.3020871,11.2192587 C19.4256609,11.4069355 19.4469743,11.5745813 19.4469743,11.9115801 L19.4469743,12.6528408 L18.5642887,12.6528408 L18.5609757,12.1769907 C18.5609757,11.9499349 18.5820683,11.6234068 18.4228248,11.4418759 C18.2949442,11.3091705 18.1000311,11.280376 17.7849677,11.280376 L16.8455198,11.280376 L16.8455198,12.6528408 L15.970454,12.6528408 L15.970454,8.87950155 L17.9833042,8.87950155 C18.4305551,8.87950155 18.7600852,8.89167948 19.0430128,9.06023578 C19.3198667,9.22879207 19.4858465,9.47485467 19.4858465,9.89573325 L19.4858465,9.89573325 L19.4858465,9.89573325 Z M20.8863493,12.6528408 L19.9933935,12.6528408 L19.9933935,8.87950155 L20.8863493,8.87950155 L20.8863493,12.6528408 L20.8863493,12.6528408 L20.8863493,12.6528408 Z M31.2457857,12.6528408 L30.0056306,12.6528408 L28.3468265,9.82073082 L28.3468265,12.6528408 L26.5645591,12.6528408 L26.2239857,11.8111974 L24.4060487,11.8111974 L24.0756351,12.6528408 L23.0515961,12.6528408 C22.6262108,12.6528408 22.0876323,12.5558725 21.7826182,12.2354904 C21.4750641,11.9151082 21.3150477,11.4811413 21.3150477,10.7949657 C21.3150477,10.2353497 21.4106821,9.72376259 21.7868146,9.31950062 C22.0697422,9.01835278 22.5127967,8.87950155 23.1158677,8.87950155 L23.9631046,8.87950155 L23.9631046,9.68802546 L23.1336473,9.68802546 C22.814277,9.68802546 22.633941,9.73696483 22.460231,9.91155318 C22.3110369,10.0704354 22.2086661,10.3707865 22.2086661,10.766285 C22.2086661,11.1705469 22.2866313,11.4620207 22.4492982,11.652429 C22.5840256,11.801751 22.8288541,11.8470484 23.0592159,11.8470484 L23.4522446,11.8470484 L24.6856633,8.87961536 L25.9969369,8.87961536 L27.4786075,12.4486611 L27.4786075,8.87961536 L28.811084,8.87961536 L30.3494064,11.5075457 L30.3494064,8.87961536 L31.2457857,8.87961536 L31.2457857,12.6528408 L31.2457857,12.6528408 L31.2457857,12.6528408 Z M2.33934936,13.3939877 L3.83460316,13.3939877 L4.17175307,12.5558725 L4.92655807,12.5558725 L5.26282453,13.3939877 L8.20485232,13.3939877 L8.20485232,12.7532234 L8.46746041,13.3967192 L9.9947396,13.3967192 L10.2573477,12.7436631 L10.2573477,13.3939877 L17.5688516,13.3939877 L17.5654282,12.0182223 L17.706892,12.0182223 C17.8059498,12.0217505 17.8348831,12.031197 17.8348831,12.1997533 L17.8348831,13.3939877 L21.6164175,13.3939877 L21.6164175,13.0737193 C21.9214316,13.2421619 22.3958489,13.3939877 23.0201229,13.3939877 L24.6110111,13.3939877 L24.951474,12.5558725 L25.706279,12.5558725 L26.0392325,13.3939877 L29.1049445,13.3939877 L29.1049445,12.5978693 L29.569202,13.3939877 L32.0258797,13.3939877 L32.0258797,8.13129825 L29.5946014,8.13129825 L29.5946014,8.75282825 L29.2541385,8.13129825 L26.7593617,8.13129825 L26.7593617,8.75282825 L26.4467278,8.13129825 L23.0768851,8.13129825 C22.5127967,8.13129825 22.0169556,8.21244655 21.6164175,8.43859196 L21.6164175,8.13129825 L19.2909334,8.13129825 L19.2909334,8.43859196 C19.0360556,8.20550398 18.6887459,8.13129825 18.302564,8.13129825 L9.80667332,8.13129825 L9.23662161,9.49056079 L8.65121981,8.13129825 L5.97522351,8.13129825 L5.97522351,8.75282825 L5.68125264,8.13129825 L3.39905803,8.13129825 L2.33923893,10.6334658 L2.33923893,13.3939877 L2.33934936,13.3939877 L2.33934936,13.3939877 Z" id="AMERICAN" fill="#FFFFFF"></path>
        </g>
    </g>
</svg>