<?xml version="1.0" encoding="UTF-8" standalone="no"?>
<svg width="37px" height="28px" viewBox="0 0 37 28" version="1.1" xmlns="http://www.w3.org/2000/svg" xmlns:xlink="http://www.w3.org/1999/xlink">
    <!-- Generator: Sketch 3.6 (26304) - http://www.bohemiancoding.com/sketch -->
    <title>Group</title>
    <desc>Created with Sketch.</desc>
    <defs></defs>
    <g id="Page-1" stroke="none" stroke-width="1" fill="none" fill-rule="evenodd">
        <g id="Group">
            <path d="M1,2 C1,1.57667545 1.58052842,1 2,1 L35,1 C35.4124425,1 36,1.58313267 36,2 L36,26 C36,26.4233245 35.4194716,27 35,27 L2,27 C1.58755746,27 1,26.4168673 1,26 L1,2 L1,2 Z M0,2 L0,26 C0,26.9708513 1.03695781,28 2,28 L35,28 C35.9702712,28 37,26.9771055 37,26 L37,2 C37,1.02914867 35.9630422,0 35,0 L2,0 C1.02972885,0 0,1.02289455 0,2 L0,2 Z" id="path-1" fill="#E6772F"></path>
            <path d="M12,28 L35,28 C36.2040085,28 37,27.1694335 37,26 L37,19 C37,19 28.1706486,25.2173895 12,28 L12,28 Z" id="path-3" fill="#FFFFFF"></path>
            <path d="M35,28 C36.2040085,28 37,27.1694335 37,26 L37,19 C37,19 28.1706486,25.2173895 12,28 L35,28 Z" id="path-3" fill="#E7772F"></path>
            <path d="M6.5100382,14.7365858 C6.20628879,14.9836554 5.81961217,15.0916942 5.20127195,15.0916942 L4.94469214,15.0916942 L4.94469214,12.1433072 L5.20127195,12.1433072 C5.81961217,12.1433072 6.19145319,12.2440742 6.5100382,12.5034366 C6.83889401,12.7714561 7.03651182,13.1849125 7.03651182,13.6125662 C7.03651182,14.0422977 6.83889401,14.4704709 6.5100382,14.7365858 L6.5100382,14.7365858 L6.5100382,14.7365858 Z M5.39280335,11.388074 L3.9889371,11.388074 L3.9889371,15.8472736 L5.38424435,15.8472736 C6.12678518,15.8472736 6.66276881,15.6864273 7.13256282,15.331492 C7.69060965,14.9111101 8.02174786,14.2763818 8.02174786,13.6187992 C8.02174786,12.3024221 6.94141182,11.388074 5.39280335,11.388074 L5.39280335,11.388074 L5.39280335,11.388074 Z" id="Fill-13" fill="#1A1918"></path>
            <path d="M8.46244128,11.388074 L9.41439231,11.388074 L9.41439231,15.8472736 L8.46244128,15.8472736 L8.46244128,11.388074 L8.46244128,11.388074 Z" id="Fill-14" fill="#1A1918"></path>
            <path d="M11.7521406,13.0971309 C11.1775464,12.9052927 11.0095998,12.777516 11.0095998,12.5365062 C11.0095998,12.256367 11.3097354,12.0439253 11.7224694,12.0439253 C12.0085302,12.0439253 12.244188,12.148155 12.495252,12.4028428 L12.9922447,11.8093217 C12.5816028,11.4803572 12.090126,11.3137973 11.5543326,11.3137973 C10.687401,11.3137973 10.0266461,11.8628217 10.0266461,12.5887943 C10.0266461,13.2051697 10.3338192,13.5178591 11.2302318,13.8147928 C11.6049258,13.9333931 11.795316,14.0144223 11.8917474,14.0693074 C12.0827082,14.1816747 12.1778082,14.3426941 12.1778082,14.5288188 C12.1778082,14.8915453 11.8620762,15.1581797 11.4352674,15.1581797 C10.9808796,15.1581797 10.613223,14.9511052 10.3931616,14.5622346 L9.77729393,15.1051991 C10.217607,15.6924872 10.745412,15.9549662 11.4725466,15.9549662 C12.4642494,15.9549662 13.1630443,15.3505373 13.1630443,14.4896893 C13.1630443,13.7803381 12.8389434,13.4588186 11.7521406,13.0971309" id="Fill-15" fill="#1A1918"></path>
            <path d="M13.4631799,13.6187992 C13.4631799,14.9301554 14.5939189,15.9463092 16.0495196,15.9463092 C16.4599712,15.9463092 16.8118412,15.8725519 17.2451168,15.6864273 L17.2451168,14.6616165 C16.8622442,15.0118771 16.5261608,15.1500421 16.0913636,15.1500421 C15.1295221,15.1500421 14.4482257,14.5165259 14.4482257,13.6125662 C14.4482257,12.7584707 15.1515853,12.0818427 16.0495196,12.0818427 C16.502576,12.0818427 16.84874,12.2279722 17.2451168,12.5834269 L17.2451168,11.5598281 C16.8264866,11.3671242 16.4829854,11.287307 16.0691102,11.287307 C14.6218783,11.287307 13.4631799,12.3233719 13.4631799,13.6187992" id="Fill-16" fill="#1A1918"></path>
            <path d="M24.9847355,14.3818236 L23.6784419,11.388074 L22.6369066,11.388074 L24.7135103,15.9598141 L25.2257189,15.9598141 L27.342645,11.388074 L26.3092884,11.388074 L24.9847355,14.3818236" id="Fill-17" fill="#1A1918"></path>
            <path d="M27.7761108,15.8472736 L30.4851295,15.8472736 L30.4851295,15.0916942 L28.7318659,15.0916942 L28.7318659,13.8880307 L30.4185595,13.8880307 L30.4185595,13.1326244 L28.7318659,13.1326244 L28.7318659,12.1433072 L30.4851295,12.1433072 L30.4851295,11.388074 L27.7761108,11.388074 L27.7761108,15.8472736" id="Fill-18" fill="#1A1918"></path>
            <path d="M32.3509916,13.4385614 L32.07368,13.4385614 L32.07368,12.0898071 L32.366588,12.0898071 C32.9634356,12.0898071 33.2831619,12.3178314 33.2831619,12.7522376 C33.2831619,13.1985904 32.9634356,13.4385614 32.3509916,13.4385614 L32.3509916,13.4385614 L32.3509916,13.4385614 Z M34.2668763,12.7037587 C34.2668763,11.8687084 33.6376947,11.388074 32.5347248,11.388074 L31.1158328,11.388074 L31.1158328,15.8472736 L32.07368,15.8472736 L32.07368,14.0544174 L32.1978806,14.0544174 L33.5176785,15.8472736 L34.6929243,15.8472736 L33.1517337,13.9678478 C33.8720211,13.8338381 34.2668763,13.3861002 34.2668763,12.7037587 L34.2668763,12.7037587 L34.2668763,12.7037587 Z" id="Fill-19" fill="#1A1918"></path>
            <path d="M22.7715682,13.6291876 C22.7715682,14.9130146 21.6288466,15.9535811 20.2179429,15.9535811 C18.8074197,15.9535811 17.6645078,14.9130146 17.6645078,13.6291876 C17.6645078,12.3451874 18.8074197,11.3044478 20.2179429,11.3044478 C21.6288466,11.3044478 22.7715682,12.3451874 22.7715682,13.6291876" id="Fill-20" fill="#E7772F"></path>
        </g>
    </g>
</svg>