<?xml version="1.0" encoding="UTF-8" standalone="no"?>
<svg width="37px" height="28px" viewBox="0 0 37 28" version="1.1" xmlns="http://www.w3.org/2000/svg" xmlns:xlink="http://www.w3.org/1999/xlink">
    <!-- Generator: Sketch 3.6 (26304) - http://www.bohemiancoding.com/sketch -->
    <title>Group</title>
    <desc>Created with Sketch.</desc>
    <defs></defs>
    <g id="Page-1" stroke="none" stroke-width="1" fill="none" fill-rule="evenodd">
        <g id="Group">
            <rect id="Rectangle" fill="#26337A" x="0" y="0" width="37" height="28" rx="1.86673524"></rect>
            <path d="M13.6729273,18.455155 L15.0985181,9.5539155 L17.3772738,9.5539155 L15.9518134,18.455155 L13.6729273,18.455155" id="Fill-3" fill="#FFFFFF"></path>
            <path d="M24.2175812,9.77239436 C23.7670173,9.59374648 23.0583926,9.39892958 22.175642,9.39892958 C19.9226924,9.39892958 18.336791,10.6068732 18.3236273,12.3365633 C18.3092906,13.6160188 19.4553155,14.3295587 20.3192981,14.7548169 C21.207262,15.190723 21.505596,15.4696714 21.502077,15.8594367 C21.4959513,16.4555868 20.793322,16.7287512 20.1381341,16.7287512 C19.2257977,16.7287512 18.7410864,16.5942723 17.9916672,16.261953 L17.6985465,16.1202441 L17.3798805,18.1127136 C17.9112512,18.3606385 18.8963139,18.575831 19.9186521,18.5871362 C22.3130138,18.5871362 23.868808,17.3937841 23.8870548,15.5467042 C23.8952658,14.5321315 23.2880408,13.7631174 21.9729729,13.1281877 C21.1766336,12.7154179 20.6878819,12.4419906 20.6934863,12.0242253 C20.6940076,11.6543099 21.1063838,11.2582347 21.9989094,11.2582347 C22.7442882,11.2461409 23.28387,11.4193991 23.7043268,11.6002817 L23.9089508,11.7020282 L24.2175812,9.77239436" id="Fill-4" fill="#FFFFFF"></path>
            <path d="M27.2518818,15.2993052 C27.4407354,14.7876808 28.1596565,12.8112488 28.1596565,12.8112488 C28.1463624,12.8347794 28.3474675,12.2956808 28.4625522,11.962047 L28.616346,12.7297465 C28.616346,12.7297465 29.0536158,14.8543286 29.1436766,15.2993052 L27.2518818,15.2993052 L27.2518818,15.2993052 L27.2518818,15.2993052 Z M30.0631812,9.56298591 L28.3021113,9.56298591 C27.7558825,9.56298591 27.3470255,9.72046948 27.1077327,10.3008451 L23.7236162,18.4583099 L26.1170656,18.4583099 C26.1170656,18.4583099 26.5075456,17.3609202 26.5961726,17.1200939 C26.8572311,17.1200939 29.1829069,17.1246948 29.5148671,17.1246948 C29.583162,17.4353239 29.7923478,18.4583099 29.7923478,18.4583099 L31.9074041,18.4583099 L30.0631812,9.56298591 L30.0631812,9.56298591 L30.0631812,9.56298591 Z" id="Fill-5" fill="#FFFFFF"></path>
            <path d="M11.7611915,9.56140845 L9.53078964,15.6299155 L9.29188783,14.396338 C8.87625344,12.9750423 7.58243006,11.4345164 6.13520384,10.6626103 L8.1757094,18.4473991 L10.5874055,18.445953 L14.1760156,9.56140845 L11.7611915,9.56140845" id="Fill-6" fill="#FFFFFF"></path>
            <path d="M7.46030732,9.5553615 L3.78554658,9.5553615 L3.75530914,9.73979343 C6.6147018,10.4771268 8.50662685,12.2569014 9.29188783,14.396338 L8.49333281,10.3063662 C8.35557001,9.74229108 7.95518465,9.57507982 7.46030732,9.5553615" id="Fill-7" fill="#ED982D"></path>
        </g>
    </g>
</svg>