<?xml version="1.0" encoding="UTF-8" standalone="no"?>
<svg xmlns:sketch="http://www.bohemiancoding.com/sketch/ns" xmlns="http://www.w3.org/2000/svg" height="31px" width="142px" version="1.1" xmlns:xlink="http://www.w3.org/1999/xlink" viewBox="0 0 142 31"><!-- Generator: Sketch 3.2.2 (9983) - http://www.bohemiancoding.com/sketch -->
 <title>logo-pdffiller</title>
 <desc>Created with Sketch.</desc>
 <g id="Page-1" fill-rule="evenodd" sketch:type="MSPage" fill="none">
  <g id="logo-pdffiller" sketch:type="MSLayerGroup">
   <path id="Shape" sketch:type="MSShapeGroup" fill="#E74C3C" d="m59.502 16.548c-1.042 0.894-2.529 1.34-4.462 1.34h-3.704v6.574h-3.693v-18.283l7.639-0.0001c1.76 0 3.165 0.4713 4.212 1.4141 1.047 0.9426 1.57 2.4022 1.57 4.378 0 2.159-0.521 3.684-1.562 4.577zm-2.837-6.5859c-0.471-0.4051-1.131-0.6079-1.979-0.6079h-3.35v5.3828h3.35c0.848 0 1.508-0.218 1.979-0.657 0.47-0.438 0.706-1.133 0.706-2.084s-0.236-1.629-0.706-2.0339z"/>
   <path id="Shape" sketch:type="MSShapeGroup" fill="#E74C3C" d="m73.304 6.6196c1.248 0.4217 2.259 1.1951 3.032 2.3196 0.62 0.9098 1.043 1.8938 1.268 2.9518 0.226 1.059 0.339 2.068 0.339 3.027 0 2.431-0.475 4.49-1.425 6.177-1.289 2.274-3.278 3.411-5.968 3.411h-7.67v-18.283l7.67-0.0003c1.104 0.0168 2.021 0.1489 2.754 0.3969zm-6.815 2.7784v11.932h3.433c1.757 0 2.982-0.888 3.675-2.666 0.378-0.976 0.568-2.138 0.568-3.486 0-1.86-0.284-3.289-0.852-4.285-0.569-0.9965-1.699-1.4948-3.391-1.4948h-3.433v-0.0002z"/>
   <path id="Shape" sketch:type="MSShapeGroup" fill="#E74C3C" d="m79.758 6.2475h12.686v3.2125h-8.992v4.205h7.972v3.175h-7.972v7.666h-3.694v-18.258-0.0005z"/>
   <path id="Shape" sketch:type="MSShapeGroup" fill="#878787" d="m101.05 6.0552c0.18 0.0125 0.42 0.031 0.73 0.0558v2.8777c-0.19-0.0248-0.52-0.0433-0.97-0.0558-0.46-0.0124-0.77 0.0911-0.944 0.3101-0.173 0.2192-0.26 0.461-0.26 0.7257v1.1413h2.254v2.493h-2.254v10.903h-3.415v-10.903h-1.932v-2.493h1.883v-0.869c0-1.4465 0.237-2.4431 0.712-2.9889 0.499-0.8103 1.702-1.2156 3.606-1.2156 0.22 0.0002 0.42 0.0063 0.59 0.0187z"/>
   <path id="Shape" sketch:type="MSShapeGroup" fill="#878787" d="m107.17 9.3314h-3.49v-3.2621h3.49v3.2621zm-3.49 1.6126h3.49v13.52h-3.49v-13.52z"/>
   <path id="Shape" sketch:type="MSShapeGroup" fill="#878787" d="m112.42 24.464h-3.44v-18.283l3.44-0.0002v18.283z"/>
   <path id="Shape" sketch:type="MSShapeGroup" fill="#878787" d="m117.68 24.464h-3.44v-18.283l3.44-0.0002v18.283z"/>
   <path id="Shape" sketch:type="MSShapeGroup" fill="#878787" d="m129.11 11.218c0.91 0.422 1.67 1.089 2.27 2 0.54 0.803 0.89 1.735 1.05 2.795 0.09 0.621 0.13 1.516 0.11 2.683h-9.58c0.05 1.356 0.51 2.307 1.37 2.853 0.53 0.339 1.16 0.509 1.9 0.509 0.78 0 1.42-0.207 1.91-0.62 0.27-0.224 0.5-0.534 0.71-0.931h3.51c-0.09 0.802-0.52 1.617-1.27 2.444-1.18 1.315-2.83 1.972-4.95 1.972-1.75 0-3.3-0.555-4.64-1.664s-2.01-2.913-2.01-5.412c0-2.342 0.61-4.138 1.82-5.388s2.77-1.875 4.7-1.875c1.15 0 2.18 0.211 3.1 0.634zm-5.15 3.053c-0.49 0.515-0.79 1.213-0.92 2.093h5.93c-0.06-0.938-0.37-1.65-0.92-2.136s-1.23-0.729-2.04-0.729c-0.88 0-1.56 0.258-2.05 0.772z"/>
   <path id="Shape" sketch:type="MSShapeGroup" fill="#878787" d="m141.7 10.628c0.05 0.004 0.15 0.01 0.3 0.018v3.622c-0.22-0.025-0.41-0.041-0.58-0.05-0.17-0.008-0.31-0.012-0.41-0.012-1.38 0-2.31 0.463-2.79 1.389-0.26 0.521-0.4 1.323-0.4 2.407v6.462h-3.46v-13.52h3.28v2.357c0.53-0.902 1-1.518 1.39-1.849 0.64-0.553 1.48-0.831 2.51-0.831 0.07 0 0.12 0.002 0.16 0.007z"/>
   <g id="Group" sketch:type="MSShapeGroup">
    <path id="Shape" fill="#CF4436" d="m34.273 0l-17.416 31h12.75l11.041-19.653-6.375-11.347z"/>
    <path id="Shape" fill="#E95E50" d="m22.612 18.63l-2.579-4.924h-12.75l8.981 16.223 6.348-11.299z"/>
    <path id="Shape" fill="#666" d="m33.079 0h-33.079l6.3565 11.347h20.348l6.375-11.347z"/>
   </g>
  </g>
 </g>
</svg>