<svg width="60" height="60" viewBox="0 0 60 60" xmlns="http://www.w3.org/2000/svg"><title>Rectangle 1 + Shape</title><g fill="none" fill-rule="evenodd"><path fill="#FFF" d="M0 0h60v60H0z"/><path d="M11 59.985c.275.514-.008-11.94 2.86-16.598 0 0 .836-1.198 2.808-1.997 0 0 6.753-2.161 7.21-4 0 0 4.98 13.595 11.548-.037 0 0 .023 1.238 3.36 2.478 0 0 6.259 2.077 7.285 4.478 0 0 3.657 8.403 2.859 15.676H11zm27.068-31.257c-.126.866-.471 1.25-.681 1.407-.553 4.16-4.101 8.945-7.834 8.945-3.248 0-6.827-4.553-7.33-8.945-.211-.16-.557-.54-.686-1.41 0 0-.858-3.251.4-2.623-.886-4.952-.217-6.635-.217-6.635 1.138-3.727 5.069-5.528 5.069-5.528.872-1.008.884-.67.816-.373.245-.318.477-.507.477-.507a3.602 3.602 0 0 0-.527.772l.43.23c.257-.439.548-.714.548-.714a3.6 3.6 0 0 0-.452.76l.213.116c.226-.86.896-1.345 1.19-1.52.379-.482.789-.703.789-.703a2.722 2.722 0 0 0-.775 1.246c.365-.561.987-.869.987-.869 0 .995.996 1.885 1.493 2.27-.102-.25-.183-.408-.183-.408.19.205.339.407.46.604.075.014.14.034.215.052-.196-.296-.36-.472-.36-.472.186.176.35.344.497.504.16.042.323.08.476.127a3.418 3.418 0 0 0-.147-.2c.109.081.206.166.299.25 2.693.845 3.798 2.439 3.798 2.439 2.365 2.81 1.147 7.334.777 8.497 1.056-.324.258 2.688.258 2.688zm-9.275-14.856l.138.056a2.77 2.77 0 0 1 .436-1.06 2.433 2.433 0 0 0-.574 1.004z" fill-opacity=".2" fill="#444"/></g></svg>